<svg width="93" height="42" viewBox="0 0 93 42" fill="none" xmlns="http://www.w3.org/2000/svg">
<path d="M19.5283 14.4144C18.637 14.4144 17.9077 13.6826 17.9077 12.7883V11.046C17.9077 10.1517 18.637 9.41992 19.5283 9.41992C20.4197 9.41992 21.1489 10.1517 21.1489 11.046V12.7883C21.1489 13.6826 20.4197 14.4144 19.5283 14.4144Z" fill="#FF5C35"/>
<path d="M19.5283 24.5425C18.637 24.5425 17.9077 23.8108 17.9077 22.9164V19.1183C17.9077 18.2239 18.637 17.4922 19.5283 17.4922C20.4197 17.4922 21.1489 18.2239 21.1489 19.1183V22.9164C21.1489 23.8108 20.4197 24.5425 19.5283 24.5425Z" fill="#FF5C35"/>
<path d="M19.5283 32.6268C18.637 32.6268 17.9077 31.895 17.9077 31.0007V29.2584C17.9077 28.3641 18.637 27.6323 19.5283 27.6323C20.4197 27.6323 21.1489 28.3641 21.1489 29.2584V31.0007C21.1489 31.895 20.4197 32.6268 19.5283 32.6268Z" fill="#FF5C35"/>
<path d="M87.9067 42H23.1516C22.2603 42 21.531 41.2682 21.531 40.3739C21.531 39.2705 20.6397 38.3761 19.54 38.3761C18.4403 38.3761 17.5489 39.2705 17.5489 40.3739C17.5489 41.2682 16.8196 42 15.9283 42H5.09335C2.28043 42 0 39.7118 0 36.8894V5.11062C0 2.28816 2.28043 0 5.09335 0H15.9167C16.8081 0 17.5373 0.731748 17.5373 1.62611C17.5373 2.72954 18.4287 3.62389 19.5284 3.62389C20.6281 3.62389 21.5194 2.72954 21.5194 1.62611C21.5194 0.731748 22.2487 0 23.14 0H87.9067C90.7196 0 93 2.28816 93 5.11062V36.8894C93 39.7118 90.7196 42 87.9067 42ZM24.506 38.7478H87.9067C88.9253 38.7478 89.7588 37.9115 89.7588 36.8894V5.11062C89.7588 4.0885 88.9253 3.25221 87.9067 3.25221H24.5176C23.8346 5.35454 21.8551 6.87611 19.54 6.87611C17.2248 6.87611 15.2453 5.35454 14.5624 3.25221H5.09335C4.07468 3.25221 3.24123 4.0885 3.24123 5.11062V36.8894C3.24123 37.9115 4.07468 38.7478 5.09335 38.7478H14.5508C15.2338 36.6455 17.2132 35.1239 19.5284 35.1239C21.8435 35.1239 23.823 36.6455 24.506 38.7478Z" fill="#FF5C35"/>
<path d="M42.2619 27.8297V28.2478C42.2619 29.4674 41.9609 30.4431 41.3705 31.14C40.7802 31.8485 39.8772 32.2898 38.6965 32.4757C38.465 32.5221 38.2451 32.4989 38.0367 32.4176C37.8283 32.3363 37.6778 32.1621 37.5852 31.9182C37.4926 31.6859 37.4811 31.4652 37.5505 31.2445C37.62 31.0238 37.7589 30.8496 37.9788 30.7102C38.3145 30.4895 38.5576 30.1759 38.6849 29.7578C38.8123 29.3396 38.8817 28.7589 38.8817 28.0155V27.8297C38.8817 27.4464 39.0322 27.1095 39.3448 26.8192C39.6573 26.5288 40.0625 26.3894 40.5718 26.3894C41.0811 26.3894 41.4863 26.5288 41.7988 26.8192C42.1114 27.1095 42.2619 27.4464 42.2619 27.8297Z" fill="#FF5C35"/>
<path d="M53.816 16.4834V25.6709C53.816 27.0183 53.3993 28.0985 52.5543 28.8999C51.7092 29.7013 50.5054 30.1079 48.9195 30.1079C47.3336 30.1079 46.1066 29.7013 45.2615 28.8999C44.4165 28.0985 43.9998 27.0183 43.9998 25.6709V16.4834C43.9998 15.1128 44.4165 14.0326 45.2615 13.2196C46.1066 12.4065 47.322 12 48.9195 12C50.5169 12 51.7092 12.4065 52.5543 13.2196C53.3993 14.0326 53.816 15.1244 53.816 16.4834ZM50.76 25.4386V16.6925C50.76 16.1001 50.598 15.6471 50.2623 15.3219C49.9266 14.9967 49.4867 14.8341 48.931 14.8341C48.3407 14.8341 47.8892 14.9967 47.5767 15.3219C47.2641 15.6471 47.1021 16.1001 47.1021 16.6925V25.4386C47.1021 26.0426 47.2641 26.5072 47.5767 26.8208C47.8892 27.1344 48.3407 27.297 48.931 27.297C49.4867 27.297 49.9266 27.1344 50.2623 26.8208C50.598 26.5072 50.76 26.0426 50.76 25.4386Z" fill="#FF5C35"/>
<path d="M65.7028 16.354V25.5415C65.7028 26.8889 65.286 27.9691 64.441 28.7705C63.596 29.5719 62.3921 29.9785 60.8062 29.9785C59.2203 29.9785 57.9933 29.5719 57.1482 28.7705C56.3032 27.9691 55.8865 26.8889 55.8865 25.5415V16.354C55.8865 14.9834 56.3032 13.9032 57.1482 13.0902C57.9933 12.2771 59.2087 11.8706 60.8062 11.8706C62.4037 11.8706 63.596 12.2771 64.441 13.0902C65.286 13.9032 65.7028 14.9951 65.7028 16.354ZM62.6467 25.3092V16.5631C62.6467 15.9707 62.4847 15.5177 62.149 15.1925C61.8133 14.8673 61.3734 14.7047 60.8178 14.7047C60.2274 14.7047 59.7759 14.8673 59.4634 15.1925C59.1509 15.5177 58.9888 15.9707 58.9888 16.5631V25.3092C58.9888 25.9132 59.1509 26.3778 59.4634 26.6914C59.7759 27.005 60.2274 27.1676 60.8178 27.1676C61.3734 27.1676 61.8133 27.005 62.149 26.6914C62.4847 26.3778 62.6467 25.9132 62.6467 25.3092Z" fill="#FF5C35"/>
<path d="M77.2555 16.354V25.5415C77.2555 26.8889 76.8388 27.9691 75.9937 28.7705C75.1487 29.5719 73.9448 29.9785 72.3589 29.9785C70.773 29.9785 69.546 29.5719 68.701 28.7705C67.8559 27.9691 67.4392 26.8889 67.4392 25.5415V16.354C67.4392 14.9834 67.8559 13.9032 68.701 13.0902C69.546 12.2771 70.7615 11.8706 72.3589 11.8706C73.9564 11.8706 75.1487 12.2771 75.9937 13.0902C76.8388 13.9032 77.2555 14.9951 77.2555 16.354ZM74.1995 25.3092V16.5631C74.1995 15.9707 74.0374 15.5177 73.7017 15.1925C73.366 14.8673 72.9261 14.7047 72.3705 14.7047C71.7801 14.7047 71.3287 14.8673 71.0161 15.1925C70.7036 15.5177 70.5415 15.9707 70.5415 16.5631V25.3092C70.5415 25.9132 70.7036 26.3778 71.0161 26.6914C71.3287 27.005 71.7801 27.1676 72.3705 27.1676C72.9261 27.1676 73.366 27.005 73.7017 26.6914C74.0374 26.3778 74.1995 25.9132 74.1995 25.3092Z" fill="#FF5C35"/>
<path d="M36.112 14.4189V28.7692C36.112 29.1569 35.9706 29.4825 35.6879 29.7461C35.4052 30.0097 35.0283 30.1415 34.5572 30.1415C34.1017 30.1415 33.7248 30.0097 33.4264 29.7461C33.1437 29.4825 33.0024 29.1569 33.0024 28.7692V15.419C33.0024 15.295 32.971 15.2097 32.9082 15.1632C32.861 15.1012 32.7904 15.0702 32.6961 15.0702H32.2485C31.8873 15.0702 31.5889 14.9461 31.3534 14.698C31.1178 14.4499 31 14.0933 31 13.6282C31 13.2095 31.1178 12.8761 31.3534 12.6281C31.5889 12.3645 31.8873 12.2327 32.2485 12.2327H33.9447C34.6985 12.2327 35.2482 12.411 35.5937 12.7676C35.9392 13.1242 36.112 13.6747 36.112 14.4189Z" fill="#FF5C35"/>
</svg>
