<svg width="98" height="41" viewBox="0 0 98 41" fill="none" xmlns="http://www.w3.org/2000/svg">
<g clip-path="url(#clip0_55_2989)">
<path d="M71.7401 29.8302C70.9701 29.8302 70.3401 29.2002 70.3401 28.4302V14.0602C70.3401 13.2902 70.9701 12.6602 71.7401 12.6602C72.5101 12.6602 73.1401 13.2902 73.1401 14.0602V28.4302C73.1401 29.2002 72.5101 29.8302 71.7401 29.8302Z" fill="#FF5C35"/>
<path d="M76.46 24.8899C73.09 24.8899 70.35 22.1499 70.35 18.7799C70.35 15.4099 73.09 12.6699 76.46 12.6699C79.83 12.6699 82.57 15.4099 82.57 18.7799C82.57 22.1499 79.83 24.8899 76.46 24.8899ZM76.46 15.4699C74.63 15.4699 73.15 16.9599 73.15 18.7799C73.15 20.5999 74.64 22.0899 76.46 22.0899C78.28 22.0899 79.77 20.5999 79.77 18.7799C79.77 16.9599 78.28 15.4699 76.46 15.4699Z" fill="#FF5C35"/>
<path d="M69.62 40.84C69.47 40.84 69.33 40.82 69.19 40.77C68.82 40.65 68.52 40.39 68.36 40.04L65.67 34.37L59.45 33.56C59.07 33.51 58.72 33.31 58.5 32.99C58.27 32.68 58.19 32.29 58.26 31.91L59.41 25.74L54.85 21.43C54.57 21.17 54.41 20.8 54.41 20.41C54.41 20.02 54.57 19.66 54.85 19.39L59.41 15.08L58.26 8.91004C58.19 8.53004 58.28 8.14004 58.5 7.83004C58.73 7.52004 59.07 7.31004 59.45 7.26004L65.67 6.45004L68.36 0.780039C68.53 0.430039 68.83 0.170039 69.19 0.0500389C69.55 -0.0699611 69.95 -0.0299611 70.29 0.150039L75.8 3.15004L81.32 0.170039C81.66 -0.00996108 82.06 -0.0499611 82.42 0.0700389C82.79 0.190039 83.09 0.450039 83.25 0.800039L85.94 6.47004L92.16 7.28004C92.54 7.33004 92.89 7.53004 93.11 7.85004C93.34 8.16004 93.42 8.55004 93.35 8.93004L92.2 15.1L96.76 19.41C97.04 19.67 97.2 20.04 97.2 20.43C97.2 20.82 97.04 21.18 96.76 21.45L92.2 25.76L93.35 31.93C93.42 32.31 93.33 32.7 93.11 33.01C92.88 33.32 92.54 33.53 92.16 33.58L85.94 34.39L83.25 40.06C83.08 40.41 82.78 40.67 82.42 40.79C82.05 40.91 81.66 40.87 81.32 40.69L75.81 37.69L70.3 40.69C70.09 40.8 69.86 40.86 69.63 40.86L69.62 40.84ZM61.27 30.98L66.78 31.7C67.25 31.76 67.66 32.06 67.86 32.49L70.24 37.51L75.12 34.85C75.54 34.62 76.04 34.62 76.46 34.85L81.34 37.51L83.72 32.49C83.92 32.06 84.33 31.76 84.8 31.7L90.31 30.98L89.29 25.52C89.2 25.05 89.36 24.57 89.7 24.25L93.74 20.43L89.7 16.61C89.35 16.28 89.2 15.8 89.29 15.34L90.31 9.88004L84.8 9.16004C84.33 9.10004 83.92 8.80004 83.72 8.37004L81.34 3.35004L76.46 6.01004C76.04 6.24004 75.54 6.24004 75.12 6.01004L70.24 3.35004L67.86 8.37004C67.66 8.80004 67.25 9.10004 66.78 9.16004L61.27 9.88004L62.29 15.34C62.38 15.81 62.22 16.29 61.88 16.61L57.84 20.43L61.88 24.25C62.23 24.58 62.38 25.06 62.29 25.52L61.27 30.98V30.98Z" fill="#FF5C35"/>
<path d="M2.03999 2.98999H4.81999C6.08999 2.98999 7.01999 3.30999 7.62999 3.95999C8.22999 4.60999 8.52999 5.56999 8.52999 6.83999V36.06C8.52999 36.62 8.32999 37.09 7.92999 37.47C7.52999 37.86 6.99999 38.05 6.34999 38.05C5.69999 38.05 5.16999 37.86 4.76999 37.47C4.36999 37.08 4.16999 36.61 4.16999 36.06V7.81999C4.16999 7.53999 4.10999 7.32999 3.97999 7.16999C3.85999 7.01999 3.66999 6.93999 3.41999 6.93999H2.02999C1.43999 6.93999 0.95999 6.77999 0.56999 6.44999C0.17999 6.12999 -0.0100098 5.61999 -0.0100098 4.93999C-0.0100098 4.25999 0.17999 3.79999 0.56999 3.47999C0.95999 3.15999 1.43999 2.98999 2.02999 2.98999H2.03999Z" fill="#FF5C35"/>
<path d="M28.98 9.11995V13.0199C28.98 15.2199 28.4 16.8499 27.24 17.9399C26.08 19.0199 24.48 19.5599 22.44 19.5599C20.4 19.5599 18.76 19.0199 17.62 17.9399C16.48 16.8599 15.9 15.2199 15.9 13.0199V9.11995C15.9 6.95995 16.47 5.32995 17.62 4.22995C18.76 3.12995 20.37 2.57995 22.44 2.57995C24.51 2.57995 26.08 3.12995 27.24 4.22995C28.4 5.32995 28.98 6.95995 28.98 9.11995V9.11995ZM20.17 35.5999L37.42 3.49995C37.67 3.03995 38.04 2.73995 38.53 2.61995C39.02 2.49995 39.52 2.53995 40.01 2.75995C40.47 3.00995 40.78 3.36995 40.94 3.84995C41.09 4.32995 41.06 4.78995 40.85 5.21995L23.6 37.3099C23.32 37.7699 22.93 38.0799 22.44 38.2099C21.95 38.3499 21.47 38.2899 21 38.0499C20.51 37.8299 20.18 37.4899 20.03 37.0099C19.87 36.5299 19.92 36.0599 20.17 35.5999V35.5999ZM24.9 13.0199V9.11995C24.9 8.15995 24.71 7.40995 24.32 6.86995C23.93 6.32995 23.31 6.05995 22.44 6.05995C21.57 6.05995 20.95 6.32995 20.56 6.86995C20.17 7.40995 19.98 8.15995 19.98 9.11995V13.0199C19.98 14.0399 20.17 14.8099 20.56 15.3199C20.95 15.8299 21.57 16.0899 22.44 16.0899C23.31 16.0899 23.93 15.8299 24.32 15.3199C24.71 14.8099 24.9 14.0399 24.9 13.0199ZM45.54 27.8599V31.7999C45.54 33.9599 44.97 35.5899 43.82 36.6699C42.68 37.7499 41.07 38.2899 39 38.2899C36.93 38.2899 35.32 37.7499 34.18 36.6699C33.04 35.5899 32.46 33.9599 32.46 31.7999V27.8599C32.46 25.6999 33.03 24.0699 34.18 22.9699C35.32 21.8699 36.93 21.3199 39 21.3199C41.07 21.3199 42.68 21.8699 43.82 22.9699C44.96 24.0699 45.54 25.6999 45.54 27.8599V27.8599ZM41.46 31.7999V27.8599C41.46 26.8999 41.27 26.1499 40.88 25.6099C40.49 25.0699 39.87 24.7999 39 24.7999C38.13 24.7999 37.52 25.0699 37.15 25.6099C36.78 26.1499 36.59 26.8999 36.59 27.8599V31.7999C36.59 32.7899 36.78 33.5399 37.15 34.0499C37.52 34.5599 38.14 34.8199 39 34.8199C39.86 34.8199 40.49 34.5599 40.88 34.0499C41.27 33.5399 41.46 32.7899 41.46 31.7999Z" fill="#FF5C35"/>
</g>
<defs>
<clipPath id="clip0_55_2989">
<rect width="97.2" height="40.84" fill="white"/>
</clipPath>
</defs>
</svg>
