<svg width="134" height="41" viewBox="0 0 134 41" fill="none" xmlns="http://www.w3.org/2000/svg">
<g clip-path="url(#clip0_55_3008)">
<path d="M107.92 29.8302C107.15 29.8302 106.52 29.2002 106.52 28.4302V14.0602C106.52 13.2902 107.15 12.6602 107.92 12.6602C108.69 12.6602 109.32 13.2902 109.32 14.0602V28.4302C109.32 29.2002 108.69 29.8302 107.92 29.8302Z" fill="#FF5C35"/>
<path d="M112.63 24.8899C109.26 24.8899 106.52 22.1499 106.52 18.7799C106.52 15.4099 109.26 12.6699 112.63 12.6699C116 12.6699 118.74 15.4099 118.74 18.7799C118.74 22.1499 116 24.8899 112.63 24.8899ZM112.63 15.4699C110.8 15.4699 109.32 16.9599 109.32 18.7799C109.32 20.5999 110.81 22.0899 112.63 22.0899C114.45 22.0899 115.94 20.5999 115.94 18.7799C115.94 16.9599 114.45 15.4699 112.63 15.4699Z" fill="#FF5C35"/>
<path d="M105.8 40.84C105.65 40.84 105.51 40.82 105.37 40.77C105 40.65 104.7 40.39 104.54 40.04L101.85 34.37L95.6301 33.56C95.2501 33.51 94.9001 33.31 94.6801 32.99C94.4501 32.68 94.3701 32.29 94.4401 31.91L95.5901 25.74L91.0301 21.43C90.7501 21.17 90.5901 20.8 90.5901 20.41C90.5901 20.02 90.7501 19.66 91.0301 19.39L95.5901 15.08L94.4401 8.91004C94.3701 8.53004 94.4601 8.14004 94.6801 7.83004C94.9101 7.52004 95.2501 7.31004 95.6301 7.26004L101.85 6.45004L104.54 0.780039C104.71 0.430039 105.01 0.170039 105.37 0.0500389C105.73 -0.0699611 106.13 -0.0299611 106.47 0.150039L111.98 3.15004L117.49 0.170039C117.83 -0.00996108 118.23 -0.0499611 118.59 0.0700389C118.96 0.190039 119.26 0.450039 119.42 0.800039L122.11 6.47004L128.33 7.28004C128.71 7.33004 129.06 7.53004 129.28 7.85004C129.51 8.16004 129.59 8.55004 129.52 8.93004L128.37 15.1L132.93 19.41C133.21 19.67 133.37 20.04 133.37 20.43C133.37 20.82 133.21 21.18 132.93 21.45L128.37 25.76L129.52 31.93C129.59 32.31 129.5 32.7 129.28 33.01C129.05 33.32 128.71 33.53 128.33 33.58L122.11 34.39L119.42 40.06C119.25 40.41 118.95 40.67 118.59 40.79C118.22 40.91 117.83 40.87 117.49 40.69L111.98 37.69L106.47 40.69C106.26 40.8 106.03 40.86 105.8 40.86V40.84ZM97.4501 30.98L102.96 31.7C103.43 31.76 103.84 32.06 104.04 32.49L106.42 37.51L111.3 34.85C111.72 34.62 112.22 34.62 112.64 34.85L117.52 37.51L119.9 32.49C120.1 32.06 120.51 31.76 120.98 31.7L126.49 30.98L125.47 25.52C125.38 25.05 125.54 24.57 125.88 24.25L129.92 20.43L125.88 16.61C125.53 16.28 125.38 15.8 125.47 15.34L126.49 9.88004L120.98 9.16004C120.51 9.10004 120.1 8.80004 119.9 8.37004L117.52 3.35004L112.64 6.01004C112.22 6.24004 111.72 6.24004 111.3 6.01004L106.42 3.35004L104.04 8.37004C103.84 8.80004 103.43 9.10004 102.96 9.16004L97.4501 9.88004L98.4701 15.34C98.5601 15.81 98.4001 16.29 98.0601 16.61L94.0201 20.43L98.0601 24.25C98.4101 24.58 98.5601 25.06 98.4701 25.52L97.4501 30.98V30.98Z" fill="#FF5C35"/>
<path d="M2.03999 2.98999H4.81999C6.08999 2.98999 7.01999 3.30999 7.62999 3.95999C8.22999 4.60999 8.52999 5.56999 8.52999 6.83999V36.06C8.52999 36.62 8.32999 37.09 7.92999 37.47C7.52999 37.86 6.99999 38.05 6.34999 38.05C5.69999 38.05 5.16999 37.86 4.76999 37.47C4.36999 37.08 4.16999 36.61 4.16999 36.06V7.81999C4.16999 7.53999 4.10999 7.32999 3.97999 7.16999C3.85999 7.01999 3.66999 6.93999 3.41999 6.93999H2.02999C1.43999 6.93999 0.95999 6.77999 0.56999 6.44999C0.17999 6.12999 -0.0100098 5.61999 -0.0100098 4.93999C-0.0100098 4.25999 0.17999 3.79999 0.56999 3.47999C0.95999 3.15999 1.43999 2.98999 2.02999 2.98999H2.03999Z" fill="#FF5C35"/>
<path d="M35.1099 11.5301V29.3801C35.1099 32.1001 34.2799 34.2701 32.6299 35.8701C30.9799 37.4801 28.6799 38.2801 25.7399 38.2801C22.7999 38.2801 20.4699 37.4801 18.8299 35.8701C17.1899 34.2601 16.3699 32.1001 16.3699 29.3801V11.5301C16.3699 8.81008 17.1899 6.64008 18.8299 5.01008C20.4699 3.39008 22.7699 2.58008 25.7399 2.58008C28.7099 2.58008 30.9699 3.39008 32.6299 5.01008C34.2799 6.63008 35.1099 8.81008 35.1099 11.5301ZM30.7499 28.9701V11.9401C30.7499 10.2101 30.3199 8.86008 29.4499 7.91008C28.5799 6.95008 27.3499 6.47008 25.7399 6.47008C24.1299 6.47008 22.8199 6.95008 21.9799 7.91008C21.1499 8.87008 20.7299 10.2101 20.7299 11.9401V28.9601C20.7299 30.7201 21.1499 32.0701 21.9799 32.9901C22.8099 33.9101 24.0699 34.3801 25.7399 34.3801C27.4099 34.3801 28.5799 33.9201 29.4499 32.9901C30.3199 32.0601 30.7499 30.7201 30.7499 28.9601V28.9701Z" fill="#FF5C35"/>
<path d="M58.2 11.5301V29.3801C58.2 32.1001 57.37 34.2701 55.72 35.8701C54.07 37.4801 51.77 38.2801 48.83 38.2801C45.89 38.2801 43.56 37.4801 41.92 35.8701C40.28 34.2601 39.46 32.1001 39.46 29.3801V11.5301C39.46 8.81008 40.28 6.64008 41.92 5.01008C43.56 3.39008 45.86 2.58008 48.83 2.58008C51.8 2.58008 54.06 3.39008 55.72 5.01008C57.37 6.63008 58.2 8.81008 58.2 11.5301V11.5301ZM53.84 28.9701V11.9401C53.84 10.2101 53.41 8.86008 52.54 7.91008C51.67 6.95008 50.44 6.47008 48.83 6.47008C47.22 6.47008 45.91 6.95008 45.07 7.91008C44.24 8.87008 43.82 10.2101 43.82 11.9401V28.9601C43.82 30.7201 44.24 32.0701 45.07 32.9901C45.9 33.9101 47.16 34.3801 48.83 34.3801C50.5 34.3801 51.67 33.9201 52.54 32.9901C53.41 32.0601 53.84 30.7201 53.84 28.9601V28.9701Z" fill="#FF5C35"/>
<path d="M81.2901 11.5301V29.3801C81.2901 32.1001 80.46 34.2701 78.81 35.8701C77.16 37.4801 74.86 38.2801 71.92 38.2801C68.98 38.2801 66.6501 37.4801 65.0101 35.8701C63.3701 34.2601 62.55 32.1001 62.55 29.3801V11.5301C62.55 8.81008 63.3701 6.64008 65.0101 5.01008C66.6501 3.39008 68.95 2.58008 71.92 2.58008C74.89 2.58008 77.15 3.39008 78.81 5.01008C80.46 6.63008 81.2901 8.81008 81.2901 11.5301ZM76.93 28.9701V11.9401C76.93 10.2101 76.5 8.86008 75.63 7.91008C74.76 6.95008 73.53 6.47008 71.92 6.47008C70.31 6.47008 69.0001 6.95008 68.1601 7.91008C67.3301 8.87008 66.9101 10.2101 66.9101 11.9401V28.9601C66.9101 30.7201 67.3301 32.0701 68.1601 32.9901C68.9901 33.9101 70.25 34.3801 71.92 34.3801C73.59 34.3801 74.76 33.9201 75.63 32.9901C76.5 32.0601 76.93 30.7201 76.93 28.9601V28.9701Z" fill="#FF5C35"/>
</g>
<defs>
<clipPath id="clip0_55_3008">
<rect width="133.38" height="40.84" fill="white"/>
</clipPath>
</defs>
</svg>
