<svg width="94" height="42" viewBox="0 0 94 42" fill="none" xmlns="http://www.w3.org/2000/svg">
<g clip-path="url(#clip0_55_2923)">
<path d="M19.7384 14.4144C18.8375 14.4144 18.1003 13.6826 18.1003 12.7883V11.046C18.1003 10.1517 18.8375 9.41992 19.7384 9.41992C20.6393 9.41992 21.3764 10.1517 21.3764 11.046V12.7883C21.3764 13.6826 20.6393 14.4144 19.7384 14.4144Z" fill="#FF5C35"/>
<path d="M19.7384 24.5428C18.8375 24.5428 18.1003 23.811 18.1003 22.9167V19.1185C18.1003 18.2242 18.8375 17.4924 19.7384 17.4924C20.6393 17.4924 21.3764 18.2242 21.3764 19.1185V22.9167C21.3764 23.811 20.6393 24.5428 19.7384 24.5428Z" fill="#FF5C35"/>
<path d="M19.7384 32.6268C18.8375 32.6268 18.1003 31.895 18.1003 31.0007V29.2584C18.1003 28.3641 18.8375 27.6323 19.7384 27.6323C20.6393 27.6323 21.3764 28.3641 21.3764 29.2584V31.0007C21.3764 31.895 20.6393 32.6268 19.7384 32.6268Z" fill="#FF5C35"/>
<path d="M88.8519 42H23.4006C22.4996 42 21.7625 41.2682 21.7625 40.3739C21.7625 39.2705 20.8616 38.3761 19.7501 38.3761C18.6385 38.3761 17.7376 39.2705 17.7376 40.3739C17.7376 41.2682 17.0005 42 16.0996 42H5.14812C2.30495 42 0 39.7118 0 36.8894V5.11062C0 2.28816 2.30495 0 5.14812 0H16.0879C16.9888 0 17.7259 0.731748 17.7259 1.62611C17.7259 2.72954 18.6268 3.62389 19.7384 3.62389C20.8499 3.62389 21.7508 2.72954 21.7508 1.62611C21.7508 0.731748 22.4879 0 23.3888 0H88.8519C91.6951 0 94 2.28816 94 5.11062V36.8894C94 39.7118 91.6951 42 88.8519 42ZM24.7695 38.7478H88.8519C89.8815 38.7478 90.7239 37.9115 90.7239 36.8894V5.11062C90.7239 4.0885 89.8815 3.25221 88.8519 3.25221H24.7812C24.0909 5.35454 22.0901 6.87611 19.7501 6.87611C17.41 6.87611 15.4093 5.35454 14.7189 3.25221H5.14812C4.1185 3.25221 3.27608 4.0885 3.27608 5.11062V36.8894C3.27608 37.9115 4.1185 38.7478 5.14812 38.7478H14.7072C15.3976 36.6455 17.3983 35.1239 19.7384 35.1239C22.0784 35.1239 24.0792 36.6455 24.7695 38.7478Z" fill="#FF5C35"/>
<path d="M33.3223 25.5184V25.5416C33.3223 26.1456 33.4978 26.5637 33.8606 26.8077C34.2233 27.0516 34.7264 27.1677 35.3816 27.1677C36.0368 27.1677 36.5399 27.0516 36.9026 26.8077C37.2653 26.5637 37.4408 26.1456 37.4408 25.5416V23.5671C37.4408 23.0212 37.2887 22.6146 36.9728 22.3475C36.6569 22.0803 36.2006 21.941 35.5922 21.941H34.586C34.2116 21.941 33.8957 21.8132 33.6499 21.5693C33.4042 21.3254 33.2755 20.9653 33.2755 20.5007C33.2755 20.0361 33.4042 19.6992 33.6499 19.4553C33.8957 19.2114 34.2116 19.0837 34.586 19.0837H35.4986C36.0134 19.0837 36.4112 18.9559 36.692 18.7004C36.9728 18.4448 37.1132 18.0731 37.1132 17.5737V16.2496C37.1132 15.7734 36.9611 15.3901 36.6452 15.1229C36.3293 14.8558 35.8847 14.7164 35.3114 14.7164C34.7849 14.7164 34.3637 14.8325 34.0478 15.0648C33.7318 15.2971 33.568 15.6224 33.5563 16.0405C33.5212 16.3773 33.3808 16.6677 33.1117 16.9C32.8426 17.1323 32.4682 17.2485 31.9885 17.2485C31.5088 17.2485 31.1227 17.1323 30.8536 16.9C30.5845 16.6677 30.4441 16.3541 30.4441 15.9708V15.8082C30.4441 14.5073 30.9004 13.52 31.8013 12.8696C32.7022 12.2075 33.884 11.8823 35.3231 11.8823C36.7622 11.8823 37.9205 12.2075 38.8449 12.8696C39.7692 13.5317 40.2372 14.5073 40.2372 15.8082V17.6666C40.2372 18.3287 40.0734 18.9094 39.7575 19.374C39.4416 19.8502 39.0087 20.1987 38.4822 20.431C39.1842 20.6285 39.7107 21.0001 40.05 21.5228C40.3893 22.0455 40.5648 22.6611 40.5648 23.358V25.8668C40.5648 27.1677 40.1319 28.1782 39.2544 28.8984C38.3769 29.6185 37.0898 29.9786 35.3816 29.9786C33.6733 29.9786 32.3746 29.6185 31.4971 28.8984C30.6196 28.1782 30.1984 27.1677 30.1984 25.8668V25.5184C30.1984 25.1467 30.3388 24.8215 30.6313 24.5543C30.9238 24.2872 31.2865 24.1478 31.7428 24.1478C32.1991 24.1478 32.5852 24.2872 32.8777 24.5543C33.1702 24.8215 33.3106 25.1467 33.3106 25.5184H33.3223Z" fill="#FF5C35"/>
<path d="M46.3096 27.8297V28.2478C46.3096 29.4674 46.0054 30.4431 45.4087 31.14C44.8119 31.8485 43.8993 32.2898 42.7059 32.4757C42.4719 32.5221 42.2496 32.4989 42.039 32.4176C41.8284 32.3363 41.6763 32.1621 41.5827 31.9182C41.4891 31.6859 41.4774 31.4652 41.5476 31.2445C41.6178 31.0238 41.7582 30.8496 41.9805 30.7102C42.3198 30.4895 42.5655 30.1759 42.6942 29.7578C42.8229 29.3396 42.8931 28.7589 42.8931 28.0155V27.8297C42.8931 27.4464 43.0452 27.1095 43.3611 26.8192C43.677 26.5288 44.0865 26.3894 44.6013 26.3894C45.1162 26.3894 45.5257 26.5288 45.8416 26.8192C46.1575 27.1095 46.3096 27.4464 46.3096 27.8297Z" fill="#FF5C35"/>
<path d="M58.3375 16.354V25.5415C58.3375 26.8889 57.9163 27.9691 57.0622 28.7705C56.208 29.5719 54.9912 29.9785 53.3883 29.9785C51.7853 29.9785 50.5451 29.5719 49.691 28.7705C48.8369 27.9691 48.4156 26.8889 48.4156 25.5415V16.354C48.4156 14.9834 48.8369 13.9032 49.691 13.0902C50.5451 12.2771 51.7736 11.8706 53.3883 11.8706C55.0029 11.8706 56.208 12.2771 57.0622 13.0902C57.9163 13.9032 58.3375 14.9951 58.3375 16.354ZM55.2486 25.3092V16.5631C55.2486 15.9707 55.0848 15.5177 54.7455 15.1925C54.4062 14.8673 53.9616 14.7047 53.4 14.7047C52.8033 14.7047 52.3469 14.8673 52.031 15.1925C51.7151 15.5177 51.5513 15.9707 51.5513 16.5631V25.3092C51.5513 25.9132 51.7151 26.3778 52.031 26.6914C52.3469 27.005 52.8033 27.1676 53.4 27.1676C53.9616 27.1676 54.4062 27.005 54.7455 26.6914C55.0848 26.3778 55.2486 25.9132 55.2486 25.3092Z" fill="#FF5C35"/>
<path d="M70.0026 16.354V25.5415C70.0026 26.8889 69.5814 27.9691 68.7273 28.7705C67.8732 29.5719 66.6564 29.9785 65.0534 29.9785C63.4505 29.9785 62.2103 29.5719 61.3561 28.7705C60.502 27.9691 60.0808 26.8889 60.0808 25.5415V16.354C60.0808 14.9834 60.502 13.9032 61.3561 13.0902C62.2103 12.2771 63.4388 11.8706 65.0534 11.8706C66.6681 11.8706 67.8732 12.2771 68.7273 13.0902C69.5814 13.9032 70.0026 14.9951 70.0026 16.354ZM66.9138 25.3092V16.5631C66.9138 15.9707 66.75 15.5177 66.4107 15.1925C66.0714 14.8673 65.6267 14.7047 65.0651 14.7047C64.4684 14.7047 64.0121 14.8673 63.6962 15.1925C63.3803 15.5177 63.2165 15.9707 63.2165 16.5631V25.3092C63.2165 25.9132 63.3803 26.3778 63.6962 26.6914C64.0121 27.005 64.4684 27.1676 65.0651 27.1676C65.6267 27.1676 66.0714 27.005 66.4107 26.6914C66.75 26.3778 66.9138 25.9132 66.9138 25.3092Z" fill="#FF5C35"/>
<path d="M81.6795 16.354V25.5415C81.6795 26.8889 81.2583 27.9691 80.4042 28.7705C79.5501 29.5719 78.3332 29.9785 76.7303 29.9785C75.1274 29.9785 73.8871 29.5719 73.033 28.7705C72.1789 27.9691 71.7577 26.8889 71.7577 25.5415V16.354C71.7577 14.9834 72.1789 13.9032 73.033 13.0902C73.8871 12.2771 75.1157 11.8706 76.7303 11.8706C78.3449 11.8706 79.5501 12.2771 80.4042 13.0902C81.2583 13.9032 81.6795 14.9951 81.6795 16.354ZM78.5906 25.3092V16.5631C78.5906 15.9707 78.4268 15.5177 78.0875 15.1925C77.7482 14.8673 77.3036 14.7047 76.742 14.7047C76.1453 14.7047 75.689 14.8673 75.3731 15.1925C75.0572 15.5177 74.8934 15.9707 74.8934 16.5631V25.3092C74.8934 25.9132 75.0572 26.3778 75.3731 26.6914C75.689 27.005 76.1453 27.1676 76.742 27.1676C77.3036 27.1676 77.7482 27.005 78.0875 26.6914C78.4268 26.3778 78.5906 25.9132 78.5906 25.3092Z" fill="#FF5C35"/>
</g>
<defs>
<clipPath id="clip0_55_2923">
<rect width="94" height="42" fill="white"/>
</clipPath>
</defs>
</svg>
