<svg width="93" height="42" viewBox="0 0 93 42" fill="none" xmlns="http://www.w3.org/2000/svg">
<g clip-path="url(#clip0_55_2949)">
<path d="M19.5283 14.4144C18.637 14.4144 17.9077 13.6826 17.9077 12.7883V11.046C17.9077 10.1517 18.637 9.41992 19.5283 9.41992C20.4197 9.41992 21.1489 10.1517 21.1489 11.046V12.7883C21.1489 13.6826 20.4197 14.4144 19.5283 14.4144Z" fill="#FF5C35"/>
<path d="M19.5283 24.5428C18.637 24.5428 17.9077 23.811 17.9077 22.9167V19.1185C17.9077 18.2242 18.637 17.4924 19.5283 17.4924C20.4197 17.4924 21.1489 18.2242 21.1489 19.1185V22.9167C21.1489 23.811 20.4197 24.5428 19.5283 24.5428Z" fill="#FF5C35"/>
<path d="M19.5283 32.6268C18.637 32.6268 17.9077 31.895 17.9077 31.0007V29.2584C17.9077 28.3641 18.637 27.6323 19.5283 27.6323C20.4197 27.6323 21.1489 28.3641 21.1489 29.2584V31.0007C21.1489 31.895 20.4197 32.6268 19.5283 32.6268Z" fill="#FF5C35"/>
<path d="M87.9067 42H23.1516C22.2603 42 21.531 41.2682 21.531 40.3739C21.531 39.2705 20.6397 38.3761 19.54 38.3761C18.4403 38.3761 17.5489 39.2705 17.5489 40.3739C17.5489 41.2682 16.8196 42 15.9283 42H5.09335C2.28043 42 0 39.7118 0 36.8894V5.11062C0 2.28816 2.28043 0 5.09335 0H15.9167C16.8081 0 17.5373 0.731748 17.5373 1.62611C17.5373 2.72954 18.4287 3.62389 19.5284 3.62389C20.6281 3.62389 21.5194 2.72954 21.5194 1.62611C21.5194 0.731748 22.2487 0 23.14 0H87.9067C90.7196 0 93 2.28816 93 5.11062V36.8894C93 39.7118 90.7196 42 87.9067 42ZM24.506 38.7478H87.9067C88.9253 38.7478 89.7588 37.9115 89.7588 36.8894V5.11062C89.7588 4.0885 88.9253 3.25221 87.9067 3.25221H24.5176C23.8346 5.35454 21.8551 6.87611 19.54 6.87611C17.2248 6.87611 15.2453 5.35454 14.5624 3.25221H5.09335C4.07468 3.25221 3.24123 4.0885 3.24123 5.11062V36.8894C3.24123 37.9115 4.07468 38.7478 5.09335 38.7478H14.5508C15.2338 36.6455 17.2132 35.1239 19.5284 35.1239C21.8435 35.1239 23.823 36.6455 24.506 38.7478Z" fill="#FF5C35"/>
<path d="M33.6162 20.9885C33.2573 21.2673 32.8985 21.4415 32.5281 21.5228C32.1576 21.6041 31.8104 21.5809 31.4862 21.4764C31.1505 21.3834 30.8727 21.1976 30.6528 20.9072C30.4328 20.6169 30.3287 20.2452 30.3287 19.7806V14.3331C30.3287 13.6014 30.537 13.0555 30.9422 12.6722C31.3473 12.2889 31.9493 12.103 32.7364 12.103H38.0497C38.4086 12.103 38.7211 12.2192 38.9874 12.4631C39.2536 12.707 39.3925 13.0438 39.3925 13.4968C39.3925 13.9498 39.2536 14.3215 38.9874 14.5654C38.7211 14.8093 38.4086 14.9371 38.0497 14.9371H33.8014C33.6625 14.9371 33.5583 14.9719 33.4889 15.0416C33.4194 15.1113 33.3847 15.2159 33.3847 15.3552V18.4216C33.6625 18.1893 34.0098 18.0035 34.4149 17.8641C34.8201 17.7247 35.2484 17.655 35.6998 17.655C36.9848 17.655 37.9455 17.9919 38.5938 18.6655C39.242 19.3392 39.5662 20.2684 39.5662 21.4415V25.3093C39.5662 26.7496 39.1726 27.8879 38.3738 28.7242C37.5751 29.5604 36.3828 29.9786 34.7853 29.9786C33.3731 29.9786 32.2387 29.6534 31.3821 29.0029C30.5139 28.3525 29.9814 27.4465 29.7846 26.3082C29.692 25.8901 29.773 25.53 30.0277 25.2164C30.2824 24.9028 30.6296 24.717 31.0579 24.6357C31.521 24.5776 31.903 24.6473 32.2155 24.868C32.5281 25.0886 32.7249 25.379 32.8175 25.7507C32.9216 26.2502 33.1532 26.6102 33.5004 26.8309C33.8477 27.0516 34.276 27.1677 34.7853 27.1677C35.341 27.1677 35.7693 27.0284 36.0587 26.738C36.3481 26.4476 36.4986 25.9714 36.4986 25.3093V22.0107C36.4986 21.488 36.3712 21.1047 36.1281 20.8608C35.885 20.6169 35.5146 20.5007 35.04 20.5007C34.7622 20.5007 34.496 20.5472 34.2529 20.6401C34.0098 20.733 33.7898 20.8492 33.6046 20.9885H33.6162Z" fill="#FF5C35"/>
<path d="M45.2614 27.8297V28.2478C45.2614 29.4674 44.9604 30.4431 44.37 31.14C43.7797 31.8485 42.8768 32.2898 41.696 32.4757C41.4645 32.5221 41.2446 32.4989 41.0362 32.4176C40.8278 32.3363 40.6774 32.1621 40.5847 31.9182C40.4921 31.6859 40.4806 31.4652 40.55 31.2445C40.6195 31.0238 40.7584 30.8496 40.9783 30.7102C41.314 30.4895 41.5571 30.1759 41.6844 29.7578C41.8118 29.3396 41.8812 28.7589 41.8812 28.0155V27.8297C41.8812 27.4464 42.0317 27.1095 42.3443 26.8192C42.6568 26.5288 43.062 26.3894 43.5713 26.3894C44.0806 26.3894 44.4858 26.5288 44.7983 26.8192C45.1109 27.1095 45.2614 27.4464 45.2614 27.8297Z" fill="#FF5C35"/>
<path d="M57.1615 16.354V25.5415C57.1615 26.8889 56.7448 27.9691 55.8997 28.7705C55.0547 29.5719 53.8508 29.9785 52.2649 29.9785C50.679 29.9785 49.452 29.5719 48.607 28.7705C47.7619 27.9691 47.3452 26.8889 47.3452 25.5415V16.354C47.3452 14.9834 47.7619 13.9032 48.607 13.0902C49.452 12.2771 50.6675 11.8706 52.2649 11.8706C53.8624 11.8706 55.0547 12.2771 55.8997 13.0902C56.7448 13.9032 57.1615 14.9951 57.1615 16.354ZM54.1055 25.3092V16.5631C54.1055 15.9707 53.9434 15.5177 53.6077 15.1925C53.272 14.8673 52.8321 14.7047 52.2765 14.7047C51.6861 14.7047 51.2347 14.8673 50.9221 15.1925C50.6096 15.5177 50.4475 15.9707 50.4475 16.5631V25.3092C50.4475 25.9132 50.6096 26.3778 50.9221 26.6914C51.2347 27.005 51.6861 27.1676 52.2765 27.1676C52.8321 27.1676 53.272 27.005 53.6077 26.6914C53.9434 26.3778 54.1055 25.9132 54.1055 25.3092Z" fill="#FF5C35"/>
<path d="M68.7025 16.354V25.5415C68.7025 26.8889 68.2858 27.9691 67.4407 28.7705C66.5957 29.5719 65.3918 29.9785 63.8059 29.9785C62.2201 29.9785 60.993 29.5719 60.148 28.7705C59.303 27.9691 58.8862 26.8889 58.8862 25.5415V16.354C58.8862 14.9834 59.303 13.9032 60.148 13.0902C60.993 12.2771 62.2085 11.8706 63.8059 11.8706C65.4034 11.8706 66.5957 12.2771 67.4407 13.0902C68.2858 13.9032 68.7025 14.9951 68.7025 16.354ZM65.6465 25.3092V16.5631C65.6465 15.9707 65.4844 15.5177 65.1487 15.1925C64.813 14.8673 64.3732 14.7047 63.8175 14.7047C63.2272 14.7047 62.7757 14.8673 62.4632 15.1925C62.1506 15.5177 61.9885 15.9707 61.9885 16.5631V25.3092C61.9885 25.9132 62.1506 26.3778 62.4632 26.6914C62.7757 27.005 63.2272 27.1676 63.8175 27.1676C64.3732 27.1676 64.813 27.005 65.1487 26.6914C65.4844 26.3778 65.6465 25.9132 65.6465 25.3092Z" fill="#FF5C35"/>
<path d="M80.255 16.354V25.5415C80.255 26.8889 79.8383 27.9691 78.9932 28.7705C78.1482 29.5719 76.9443 29.9785 75.3584 29.9785C73.7726 29.9785 72.5455 29.5719 71.7005 28.7705C70.8554 27.9691 70.4387 26.8889 70.4387 25.5415V16.354C70.4387 14.9834 70.8554 13.9032 71.7005 13.0902C72.5455 12.2771 73.761 11.8706 75.3584 11.8706C76.9559 11.8706 78.1482 12.2771 78.9932 13.0902C79.8383 13.9032 80.255 14.9951 80.255 16.354ZM77.199 25.3092V16.5631C77.199 15.9707 77.0369 15.5177 76.7012 15.1925C76.3655 14.8673 75.9257 14.7047 75.37 14.7047C74.7796 14.7047 74.3282 14.8673 74.0156 15.1925C73.7031 15.5177 73.541 15.9707 73.541 16.5631V25.3092C73.541 25.9132 73.7031 26.3778 74.0156 26.6914C74.3282 27.005 74.7796 27.1676 75.37 27.1676C75.9257 27.1676 76.3655 27.005 76.7012 26.6914C77.0369 26.3778 77.199 25.9132 77.199 25.3092Z" fill="#FF5C35"/>
</g>
<defs>
<clipPath id="clip0_55_2949">
<rect width="93" height="42" fill="white"/>
</clipPath>
</defs>
</svg>
