<svg width="92" height="42" viewBox="0 0 92 42" fill="none" xmlns="http://www.w3.org/2000/svg">
<g clip-path="url(#clip0_55_2937)">
<path d="M19.3184 14.4144C18.4366 14.4144 17.7152 13.6826 17.7152 12.7883V11.046C17.7152 10.1517 18.4366 9.41992 19.3184 9.41992C20.2001 9.41992 20.9216 10.1517 20.9216 11.046V12.7883C20.9216 13.6826 20.2001 14.4144 19.3184 14.4144Z" fill="#FF5C35"/>
<path d="M19.3184 24.5428C18.4366 24.5428 17.7152 23.811 17.7152 22.9167V19.1185C17.7152 18.2242 18.4366 17.4924 19.3184 17.4924C20.2001 17.4924 20.9216 18.2242 20.9216 19.1185V22.9167C20.9216 23.811 20.2001 24.5428 19.3184 24.5428Z" fill="#FF5C35"/>
<path d="M19.3184 32.6268C18.4366 32.6268 17.7152 31.895 17.7152 31.0007V29.2584C17.7152 28.3641 18.4366 27.6323 19.3184 27.6323C20.2001 27.6323 20.9216 28.3641 20.9216 29.2584V31.0007C20.9216 31.895 20.2001 32.6268 19.3184 32.6268Z" fill="#FF5C35"/>
<path d="M86.9614 42H22.9027C22.0209 42 21.2995 41.2682 21.2995 40.3739C21.2995 39.2705 20.4177 38.3761 19.3298 38.3761C18.242 38.3761 17.3602 39.2705 17.3602 40.3739C17.3602 41.2682 16.6388 42 15.757 42H5.03859C2.25591 42 0 39.7118 0 36.8894V5.11062C0 2.28816 2.25591 0 5.03859 0H15.7456C16.6273 0 17.3488 0.731748 17.3488 1.62611C17.3488 2.72954 18.2305 3.62389 19.3184 3.62389C20.4063 3.62389 21.288 2.72954 21.288 1.62611C21.288 0.731748 22.0095 0 22.8912 0H86.9614C89.7441 0 92 2.28816 92 5.11062V36.8894C92 39.7118 89.7441 42 86.9614 42ZM24.2425 38.7478H86.9614C87.9691 38.7478 88.7936 37.9115 88.7936 36.8894V5.11062C88.7936 4.0885 87.9691 3.25221 86.9614 3.25221H24.2539C23.5783 5.35454 21.6201 6.87611 19.3298 6.87611C17.0396 6.87611 15.0814 5.35454 14.4058 3.25221H5.03859C4.03087 3.25221 3.20637 4.0885 3.20637 5.11062V36.8894C3.20637 37.9115 4.03087 38.7478 5.03859 38.7478H14.3943C15.07 36.6455 17.0281 35.1239 19.3184 35.1239C21.6087 35.1239 23.5668 36.6455 24.2425 38.7478Z" fill="#FF5C35"/>
<path d="M44.9464 20.9885C44.5914 21.2673 44.2364 21.4415 43.87 21.5228C43.5036 21.6041 43.16 21.5809 42.8394 21.4764C42.5073 21.3834 42.2325 21.1976 42.0149 20.9072C41.7973 20.6169 41.6942 20.2452 41.6942 19.7806V14.3331C41.6942 13.6014 41.9004 13.0555 42.3012 12.6722C42.702 12.2889 43.2974 12.103 44.0761 12.103H49.3323C49.6873 12.103 49.9965 12.2192 50.2598 12.4631C50.5232 12.707 50.6606 13.0438 50.6606 13.4968C50.6606 13.9498 50.5232 14.3215 50.2598 14.5654C49.9965 14.8093 49.6873 14.9371 49.3323 14.9371H45.1296C44.9922 14.9371 44.8892 14.9719 44.8205 15.0416C44.7517 15.1113 44.7174 15.2159 44.7174 15.3552V18.4216C44.9922 18.1893 45.3358 18.0035 45.7366 17.8641C46.1374 17.7247 46.5611 17.655 47.0077 17.655C48.2788 17.655 49.2292 17.9919 49.8705 18.6655C50.5118 19.3392 50.8324 20.2684 50.8324 21.4415V25.3093C50.8324 26.7496 50.4431 27.8879 49.6529 28.7242C48.8628 29.5604 47.6833 29.9786 46.103 29.9786C44.7059 29.9786 43.5837 29.6534 42.7363 29.0029C41.8775 28.3525 41.3507 27.4465 41.156 26.3082C41.0644 25.8901 41.1446 25.53 41.3965 25.2164C41.6484 24.9028 41.992 24.717 42.4157 24.6357C42.8737 24.5776 43.2516 24.6473 43.5608 24.868C43.87 25.0886 44.0647 25.379 44.1563 25.7507C44.2593 26.2502 44.4884 26.6102 44.8319 26.8309C45.1754 27.0516 45.5991 27.1677 46.103 27.1677C46.6527 27.1677 47.0764 27.0284 47.3627 26.738C47.6489 26.4476 47.7978 25.9714 47.7978 25.3093V22.0107C47.7978 21.488 47.6718 21.1047 47.4314 20.8608C47.1909 20.6169 46.8244 20.5007 46.3549 20.5007C46.0801 20.5007 45.8167 20.5472 45.5762 20.6401C45.3358 20.733 45.1182 20.8492 44.935 20.9885H44.9464Z" fill="#FF5C35"/>
<path d="M59.3064 15.146V17.2135C59.3064 18.317 58.9858 19.1416 58.3331 19.6759C57.6803 20.2218 56.8329 20.489 55.8023 20.489C54.7717 20.489 53.9014 20.2218 53.2601 19.6759C52.6189 19.13 52.2982 18.3053 52.2982 17.2135V15.146C52.2982 14.0658 52.6189 13.2412 53.2601 12.6953C53.9014 12.1494 54.7488 11.8706 55.8023 11.8706C56.8558 11.8706 57.6918 12.1494 58.3331 12.6953C58.9858 13.2412 59.3064 14.0658 59.3064 15.146ZM54.577 28.2014L62.7647 12.5443C62.9365 12.2191 63.177 12.01 63.4976 11.9287C63.8183 11.8474 64.1618 11.8822 64.5282 12.0332C64.8832 12.2074 65.1008 12.4397 65.1924 12.7417C65.284 13.0437 65.2497 13.3573 65.1008 13.6826L56.9131 29.3396C56.7299 29.6765 56.478 29.8972 56.1573 29.9785C55.8367 30.0598 55.5046 30.0249 55.1496 29.8507C54.7832 29.6997 54.5541 29.4674 54.4625 29.1538C54.3709 28.8402 54.4053 28.5266 54.577 28.2014ZM56.6154 17.1206V15.2622C56.6154 14.937 56.5467 14.6931 56.4092 14.5305C56.2718 14.3678 56.0657 14.2865 55.7909 14.2865C55.4817 14.2865 55.2641 14.3678 55.1382 14.5305C55.0122 14.6931 54.9435 14.937 54.9435 15.2622V17.1206C54.9435 17.4458 55.0122 17.6897 55.1382 17.8524C55.2641 18.015 55.4817 18.0963 55.7909 18.0963C56.0657 18.0963 56.2718 18.015 56.4092 17.8524C56.5467 17.6897 56.6154 17.4458 56.6154 17.1206ZM67.517 24.6588V26.7262C67.517 27.8064 67.185 28.6311 66.5322 29.1654C65.8795 29.7113 65.0207 29.9785 63.99 29.9785C62.9594 29.9785 62.0891 29.7113 61.4478 29.1654C60.8066 28.6195 60.4859 27.8064 60.4859 26.7262V24.6588C60.4859 23.5786 60.8066 22.7539 61.4478 22.208C62.0891 21.6621 62.9365 21.3833 63.99 21.3833C65.0436 21.3833 65.8795 21.6621 66.5322 22.208C67.185 22.7539 67.517 23.5786 67.517 24.6588ZM64.8145 26.6333V24.7749C64.8145 24.4497 64.7458 24.2058 64.6199 24.0316C64.4939 23.8573 64.2763 23.776 63.99 23.776C63.6808 23.776 63.4747 23.8573 63.3488 24.0316C63.2228 24.2058 63.1655 24.4497 63.1655 24.7749V26.6333C63.1655 26.9585 63.2228 27.2025 63.3488 27.3651C63.4747 27.5277 63.6808 27.609 63.99 27.609C64.2763 27.609 64.4939 27.5277 64.6199 27.3651C64.7458 27.2025 64.8145 26.9585 64.8145 26.6333Z" fill="#FF5C35"/>
</g>
<defs>
<clipPath id="clip0_55_2937">
<rect width="92" height="42" fill="white"/>
</clipPath>
</defs>
</svg>
