<svg width="141" height="41" viewBox="0 0 141 41" fill="none" xmlns="http://www.w3.org/2000/svg">
<path d="M114.92 29.8487C114.15 29.8487 113.52 29.2187 113.52 28.4487V14.0787C113.52 13.3087 114.15 12.6787 114.92 12.6787C115.69 12.6787 116.32 13.3087 116.32 14.0787V28.4487C116.32 29.2187 115.69 29.8487 114.92 29.8487Z" fill="#FF5C35"/>
<path d="M119.63 24.9085C116.26 24.9085 113.52 22.1685 113.52 18.7985C113.52 15.4285 116.26 12.6885 119.63 12.6885C123 12.6885 125.74 15.4285 125.74 18.7985C125.74 22.1685 123 24.9085 119.63 24.9085ZM119.63 15.4885C117.8 15.4885 116.32 16.9785 116.32 18.7985C116.32 20.6185 117.81 22.1085 119.63 22.1085C121.45 22.1085 122.94 20.6185 122.94 18.7985C122.94 16.9785 121.45 15.4885 119.63 15.4885Z" fill="#FF5C35"/>
<path d="M112.8 40.8586C112.65 40.8586 112.51 40.8386 112.37 40.7886C112 40.6686 111.7 40.4086 111.54 40.0586L108.85 34.3886L102.63 33.5786C102.25 33.5286 101.9 33.3286 101.68 33.0086C101.45 32.6986 101.37 32.3086 101.44 31.9286L102.59 25.7586L98.0298 21.4486C97.7498 21.1886 97.5898 20.8186 97.5898 20.4286C97.5898 20.0386 97.7498 19.6786 98.0298 19.4086L102.59 15.0986L101.44 8.92859C101.37 8.54859 101.46 8.15859 101.68 7.84859C101.91 7.53859 102.25 7.32859 102.63 7.27859L108.85 6.46859L111.54 0.798594C111.71 0.448594 112.01 0.188594 112.37 0.0685936C112.73 -0.0514064 113.13 -0.0114064 113.47 0.168594L118.98 3.16859L124.49 0.188594C124.83 0.0085936 125.23 -0.0314064 125.59 0.0885936C125.96 0.208594 126.26 0.468594 126.42 0.818594L129.11 6.48859L135.33 7.29859C135.71 7.34859 136.06 7.54859 136.28 7.86859C136.51 8.17859 136.59 8.56859 136.52 8.94859L135.37 15.1186L139.93 19.4286C140.21 19.6886 140.37 20.0586 140.37 20.4486C140.37 20.8386 140.21 21.1986 139.93 21.4686L135.37 25.7786L136.52 31.9486C136.59 32.3286 136.5 32.7186 136.28 33.0286C136.05 33.3386 135.71 33.5486 135.33 33.5986L129.11 34.4086L126.42 40.0786C126.25 40.4286 125.95 40.6886 125.59 40.8086C125.22 40.9286 124.83 40.8886 124.49 40.7086L118.98 37.7086L113.47 40.7086C113.26 40.8186 113.03 40.8786 112.8 40.8786V40.8586ZM104.45 30.9986L109.96 31.7186C110.43 31.7786 110.84 32.0786 111.04 32.5086L113.42 37.5286L118.3 34.8686C118.72 34.6386 119.22 34.6386 119.64 34.8686L124.52 37.5286L126.9 32.5086C127.1 32.0786 127.51 31.7786 127.98 31.7186L133.49 30.9986L132.47 25.5386C132.38 25.0686 132.54 24.5886 132.88 24.2686L136.92 20.4486L132.88 16.6286C132.53 16.2986 132.38 15.8186 132.47 15.3586L133.49 9.89859L127.98 9.17859C127.51 9.11859 127.1 8.81859 126.9 8.38859L124.52 3.36859L119.64 6.02859C119.22 6.25859 118.72 6.25859 118.3 6.02859L113.42 3.36859L111.04 8.38859C110.84 8.81859 110.43 9.11859 109.96 9.17859L104.45 9.89859L105.47 15.3586C105.56 15.8286 105.4 16.3086 105.06 16.6286L101.02 20.4486L105.06 24.2686C105.41 24.5986 105.56 25.0786 105.47 25.5386L104.45 30.9986Z" fill="#FF5C35"/>
<path d="M0.960151 18.4585V7.32847C0.960151 6.05847 1.28015 5.09847 1.93015 4.42847C2.58015 3.76847 3.68015 3.42847 5.22015 3.42847H15.7502C16.3102 3.42847 16.7902 3.59847 17.1902 3.93847C17.5902 4.27847 17.7902 4.76847 17.7902 5.41847C17.7902 6.06847 17.5902 6.55847 17.1902 6.87847C16.7902 7.19847 16.3102 7.36847 15.7502 7.36847H6.43015C6.06015 7.36847 5.78015 7.45847 5.60015 7.64847C5.41015 7.83847 5.32015 8.10847 5.32015 8.47847V17.1485C5.97015 16.5885 6.80015 16.1285 7.82015 15.7585C8.84015 15.3885 9.86015 15.1985 10.8802 15.1985C13.4502 15.1985 15.3802 15.8685 16.6802 17.1885C17.9802 18.5185 18.6301 20.2985 18.6301 22.5185V29.5685C18.6301 32.5085 17.8602 34.7585 16.3302 36.3385C14.8002 37.9185 12.5202 38.6985 9.49015 38.6985C6.71015 38.6985 4.52015 38.0685 2.93015 36.7985C1.34015 35.5285 0.370151 33.7685 0.030151 31.5085C-0.0598491 30.9485 0.0501509 30.4385 0.380151 29.9785C0.700151 29.5185 1.19015 29.2385 1.84015 29.1485C2.49015 29.0585 3.05015 29.1785 3.51015 29.5185C3.97015 29.8585 4.25015 30.3085 4.34015 30.8585C4.56015 32.2185 5.12015 33.2185 6.03015 33.8485C6.94015 34.4785 8.09015 34.7985 9.48015 34.7985C10.9601 34.7985 12.1301 34.3885 12.9802 33.5685C13.8302 32.7485 14.2602 31.4085 14.2602 29.5585V23.4385C14.2602 21.9285 13.9202 20.8285 13.2402 20.1485C12.5602 19.4685 11.4802 19.1285 9.99015 19.1285C9.16015 19.1285 8.38015 19.2585 7.67015 19.5185C6.96015 19.7785 6.36015 20.0985 5.86015 20.4685C5.30015 20.8985 4.74015 21.1685 4.17015 21.2785C3.60015 21.3885 3.08015 21.3485 2.62015 21.1585C2.13015 20.9685 1.72015 20.6585 1.41015 20.2085C1.10015 19.7585 0.950151 19.1685 0.950151 18.4185L0.960151 18.4585Z" fill="#FF5C35"/>
<path d="M41.7205 11.9686V29.8186C41.7205 32.5386 40.8905 34.7086 39.2405 36.3086C37.5905 37.9186 35.2905 38.7186 32.3505 38.7186C29.4105 38.7186 27.0805 37.9186 25.4405 36.3086C23.8005 34.6986 22.9805 32.5386 22.9805 29.8186V11.9686C22.9805 9.24855 23.8005 7.07856 25.4405 5.44855C27.0805 3.82855 29.3805 3.01855 32.3505 3.01855C35.3205 3.01855 37.5805 3.82855 39.2405 5.44855C40.8905 7.06855 41.7205 9.24855 41.7205 11.9686ZM37.3605 29.4086V12.3786C37.3605 10.6486 36.9305 9.29855 36.0605 8.34855C35.1905 7.38855 33.9605 6.90855 32.3505 6.90855C30.7405 6.90855 29.4305 7.38855 28.5905 8.34855C27.7605 9.30855 27.3405 10.6486 27.3405 12.3786V29.3986C27.3405 31.1586 27.7605 32.5086 28.5905 33.4286C29.4205 34.3486 30.6805 34.8186 32.3505 34.8186C34.0205 34.8186 35.1905 34.3586 36.0605 33.4286C36.9305 32.4986 37.3605 31.1586 37.3605 29.3986V29.4086Z" fill="#FF5C35"/>
<path d="M64.8201 11.9686V29.8186C64.8201 32.5386 63.9901 34.7086 62.3401 36.3086C60.6901 37.9186 58.3901 38.7186 55.4501 38.7186C52.5101 38.7186 50.1801 37.9186 48.5401 36.3086C46.9001 34.6986 46.0801 32.5386 46.0801 29.8186V11.9686C46.0801 9.24855 46.9001 7.07856 48.5401 5.44855C50.1801 3.82855 52.4801 3.01855 55.4501 3.01855C58.4201 3.01855 60.6801 3.82855 62.3401 5.44855C63.9901 7.06855 64.8201 9.24855 64.8201 11.9686ZM60.4601 29.4086V12.3786C60.4601 10.6486 60.0301 9.29855 59.1601 8.34855C58.2901 7.38855 57.0601 6.90855 55.4501 6.90855C53.8401 6.90855 52.5301 7.38855 51.6901 8.34855C50.8601 9.30855 50.4401 10.6486 50.4401 12.3786V29.3986C50.4401 31.1586 50.8601 32.5086 51.6901 33.4286C52.5201 34.3486 53.7801 34.8186 55.4501 34.8186C57.1201 34.8186 58.2901 34.3586 59.1601 33.4286C60.0301 32.4986 60.4601 31.1586 60.4601 29.3986V29.4086Z" fill="#FF5C35"/>
<path d="M87.74 11.9686V29.8186C87.74 32.5386 86.91 34.7086 85.26 36.3086C83.61 37.9186 81.31 38.7186 78.37 38.7186C75.43 38.7186 73.1 37.9186 71.46 36.3086C69.82 34.6986 69 32.5386 69 29.8186V11.9686C69 9.24855 69.82 7.07856 71.46 5.44855C73.1 3.82855 75.4 3.01855 78.37 3.01855C81.34 3.01855 83.6 3.82855 85.26 5.44855C86.91 7.06855 87.74 9.24855 87.74 11.9686ZM83.38 29.4086V12.3786C83.38 10.6486 82.95 9.29855 82.08 8.34855C81.21 7.38855 79.98 6.90855 78.37 6.90855C76.76 6.90855 75.45 7.38855 74.61 8.34855C73.78 9.30855 73.36 10.6486 73.36 12.3786V29.3986C73.36 31.1586 73.78 32.5086 74.61 33.4286C75.44 34.3486 76.7 34.8186 78.37 34.8186C80.04 34.8186 81.21 34.3586 82.08 33.4286C82.95 32.4986 83.38 31.1586 83.38 29.3986V29.4086Z" fill="#FF5C35"/>
</svg>
