<svg width="117" height="41" viewBox="0 0 117 41" fill="none" xmlns="http://www.w3.org/2000/svg">
<g clip-path="url(#clip0_55_2998)">
<path d="M91.44 29.8302C90.67 29.8302 90.04 29.2002 90.04 28.4302V14.0602C90.04 13.2902 90.67 12.6602 91.44 12.6602C92.21 12.6602 92.84 13.2902 92.84 14.0602V28.4302C92.84 29.2002 92.21 29.8302 91.44 29.8302Z" fill="#FF5C35"/>
<path d="M96.15 24.8899C92.78 24.8899 90.04 22.1499 90.04 18.7799C90.04 15.4099 92.78 12.6699 96.15 12.6699C99.52 12.6699 102.26 15.4099 102.26 18.7799C102.26 22.1499 99.52 24.8899 96.15 24.8899ZM96.15 15.4699C94.32 15.4699 92.84 16.9599 92.84 18.7799C92.84 20.5999 94.33 22.0899 96.15 22.0899C97.97 22.0899 99.46 20.5999 99.46 18.7799C99.46 16.9599 97.97 15.4699 96.15 15.4699Z" fill="#FF5C35"/>
<path d="M89.32 40.84C89.17 40.84 89.03 40.82 88.89 40.77C88.52 40.65 88.22 40.39 88.06 40.04L85.37 34.37L79.15 33.56C78.77 33.51 78.42 33.31 78.2 32.99C77.97 32.68 77.89 32.29 77.96 31.91L79.11 25.74L74.55 21.43C74.27 21.17 74.11 20.8 74.11 20.41C74.11 20.02 74.27 19.66 74.55 19.39L79.11 15.08L77.96 8.91004C77.89 8.53004 77.98 8.14004 78.2 7.83004C78.43 7.52004 78.77 7.31004 79.15 7.26004L85.37 6.45004L88.06 0.780039C88.23 0.430039 88.53 0.170039 88.89 0.0500389C89.25 -0.0699611 89.65 -0.0299611 89.99 0.150039L95.5 3.15004L101.01 0.170039C101.35 -0.00996108 101.75 -0.0499611 102.11 0.0700389C102.48 0.190039 102.78 0.450039 102.94 0.800039L105.63 6.47004L111.85 7.28004C112.23 7.33004 112.58 7.53004 112.8 7.85004C113.03 8.16004 113.11 8.55004 113.04 8.93004L111.89 15.1L116.45 19.41C116.73 19.67 116.89 20.04 116.89 20.43C116.89 20.82 116.73 21.18 116.45 21.45L111.89 25.76L113.04 31.93C113.11 32.31 113.02 32.7 112.8 33.01C112.57 33.32 112.23 33.53 111.85 33.58L105.63 34.39L102.94 40.06C102.77 40.41 102.47 40.67 102.11 40.79C101.74 40.91 101.35 40.87 101.01 40.69L95.5 37.69L89.99 40.69C89.78 40.8 89.55 40.86 89.32 40.86V40.84ZM80.97 30.98L86.48 31.7C86.95 31.76 87.36 32.06 87.56 32.49L89.94 37.51L94.82 34.85C95.24 34.62 95.74 34.62 96.16 34.85L101.04 37.51L103.42 32.49C103.62 32.06 104.03 31.76 104.5 31.7L110.01 30.98L108.99 25.52C108.9 25.05 109.06 24.57 109.4 24.25L113.44 20.43L109.4 16.61C109.05 16.28 108.9 15.8 108.99 15.34L110.01 9.88004L104.5 9.16004C104.03 9.10004 103.62 8.80004 103.42 8.37004L101.04 3.35004L96.16 6.01004C95.74 6.24004 95.24 6.24004 94.82 6.01004L89.94 3.35004L87.56 8.37004C87.36 8.80004 86.95 9.10004 86.48 9.16004L80.97 9.88004L81.99 15.34C82.08 15.81 81.92 16.29 81.58 16.61L77.54 20.43L81.58 24.25C81.93 24.58 82.08 25.06 81.99 25.52L80.97 30.98V30.98Z" fill="#FF5C35"/>
<path d="M0.960029 18.02V6.88999C0.960029 5.61999 1.28003 4.65999 1.93003 3.98999C2.58003 3.32999 3.68003 2.98999 5.22003 2.98999H15.75C16.31 2.98999 16.79 3.15999 17.19 3.49999C17.59 3.83999 17.79 4.32999 17.79 4.97999C17.79 5.62999 17.59 6.11999 17.19 6.43999C16.79 6.75999 16.31 6.92999 15.75 6.92999H6.43003C6.06003 6.92999 5.78003 7.01999 5.60003 7.20999C5.41003 7.39999 5.32003 7.66999 5.32003 8.03999V16.71C5.97003 16.15 6.80003 15.69 7.82003 15.32C8.84003 14.95 9.86003 14.76 10.88 14.76C13.45 14.76 15.38 15.43 16.68 16.75C17.98 18.08 18.63 19.86 18.63 22.08V29.13C18.63 32.07 17.86 34.32 16.33 35.9C14.8 37.48 12.52 38.26 9.49003 38.26C6.71003 38.26 4.52003 37.63 2.93003 36.36C1.34003 35.09 0.370029 33.33 0.0300289 31.07C-0.0599711 30.51 0.0500289 30 0.380029 29.54C0.700029 29.08 1.19003 28.8 1.84003 28.71C2.49003 28.62 3.05003 28.74 3.51003 29.08C3.97003 29.42 4.25003 29.87 4.34003 30.42C4.56003 31.78 5.12003 32.78 6.03003 33.41C6.94003 34.04 8.09003 34.36 9.48003 34.36C10.96 34.36 12.13 33.95 12.98 33.13C13.83 32.31 14.26 30.97 14.26 29.12V23C14.26 21.49 13.92 20.39 13.24 19.71C12.56 19.03 11.48 18.69 9.99003 18.69C9.16003 18.69 8.38003 18.82 7.67003 19.08C6.96003 19.34 6.36003 19.66 5.86003 20.03C5.30003 20.46 4.74003 20.73 4.17003 20.84C3.60003 20.95 3.08003 20.91 2.62003 20.72C2.13003 20.53 1.72003 20.22 1.41003 19.77C1.10003 19.32 0.950029 18.73 0.950029 17.98L0.960029 18.02Z" fill="#FF5C35"/>
<path d="M41.72 11.5301V29.3801C41.72 32.1001 40.89 34.2701 39.24 35.8701C37.59 37.4801 35.29 38.2801 32.35 38.2801C29.41 38.2801 27.08 37.4801 25.44 35.8701C23.8 34.2601 22.98 32.1001 22.98 29.3801V11.5301C22.98 8.81008 23.8 6.64008 25.44 5.01008C27.08 3.39008 29.38 2.58008 32.35 2.58008C35.32 2.58008 37.58 3.39008 39.24 5.01008C40.89 6.63008 41.72 8.81008 41.72 11.5301ZM37.36 28.9701V11.9401C37.36 10.2101 36.93 8.86008 36.06 7.91008C35.19 6.95008 33.96 6.47008 32.35 6.47008C30.74 6.47008 29.43 6.95008 28.59 7.91008C27.76 8.87008 27.34 10.2101 27.34 11.9401V28.9601C27.34 30.7201 27.76 32.0701 28.59 32.9901C29.42 33.9101 30.68 34.3801 32.35 34.3801C34.02 34.3801 35.19 33.9201 36.06 32.9901C36.93 32.0601 37.36 30.7201 37.36 28.9601V28.9701Z" fill="#FF5C35"/>
<path d="M64.8201 11.5301V29.3801C64.8201 32.1001 63.9901 34.2701 62.3401 35.8701C60.6901 37.4801 58.3901 38.2801 55.4501 38.2801C52.5101 38.2801 50.1801 37.4801 48.5401 35.8701C46.9001 34.2601 46.0801 32.1001 46.0801 29.3801V11.5301C46.0801 8.81008 46.9001 6.64008 48.5401 5.01008C50.1801 3.39008 52.4801 2.58008 55.4501 2.58008C58.4201 2.58008 60.6801 3.39008 62.3401 5.01008C63.9901 6.63008 64.8201 8.81008 64.8201 11.5301ZM60.4601 28.9701V11.9401C60.4601 10.2101 60.0301 8.86008 59.1601 7.91008C58.2901 6.95008 57.0601 6.47008 55.4501 6.47008C53.8401 6.47008 52.5301 6.95008 51.6901 7.91008C50.8601 8.87008 50.4401 10.2101 50.4401 11.9401V28.9601C50.4401 30.7201 50.8601 32.0701 51.6901 32.9901C52.5201 33.9101 53.7801 34.3801 55.4501 34.3801C57.1201 34.3801 58.2901 33.9201 59.1601 32.9901C60.0301 32.0601 60.4601 30.7201 60.4601 28.9601V28.9701Z" fill="#FF5C35"/>
</g>
<defs>
<clipPath id="clip0_55_2998">
<rect width="116.9" height="40.84" fill="white"/>
</clipPath>
</defs>
</svg>
