<svg width="48" height="15" viewBox="0 0 48 15" fill="none" xmlns="http://www.w3.org/2000/svg">
<path d="M0.452938 12H9.54094V9.36H3.52494V7.584H8.90094V5.136H3.52494V3.44H9.46094V0.799999H0.452938V12ZM13.4288 12.192C14.5648 12.192 15.3808 11.76 15.9728 11.104V12H18.9808V7.024C18.9808 5.808 18.7088 4.912 18.0528 4.272C17.3648 3.584 16.3088 3.216 14.7568 3.216C13.2688 3.216 12.2288 3.488 11.2528 3.888L11.8768 6.032C12.6448 5.728 13.3488 5.552 14.2608 5.552C15.4288 5.552 15.9888 6.064 15.9888 6.96V7.104C15.4928 6.928 14.7088 6.768 13.9088 6.768C11.8768 6.768 10.5168 7.696 10.5168 9.488V9.52C10.5168 11.248 11.7808 12.192 13.4288 12.192ZM14.5168 10.288C13.8928 10.288 13.4448 9.936 13.4448 9.344V9.312C13.4448 8.672 13.9568 8.24 14.8368 8.24C15.2848 8.24 15.7168 8.336 16.0208 8.464V8.864C16.0208 9.728 15.3968 10.288 14.5168 10.288ZM23.9669 12.192C26.0789 12.192 27.5029 11.2 27.5029 9.296V9.264C27.5029 7.584 26.1429 6.992 24.4309 6.512C23.5189 6.24 23.0229 6.08 23.0229 5.744V5.712C23.0229 5.472 23.2629 5.296 23.7269 5.296C24.4149 5.296 25.3909 5.6 26.2869 6.096L27.3269 4.176C26.3349 3.536 25.0229 3.168 23.7589 3.168C21.7589 3.168 20.2869 4.192 20.2869 6.032V6.064C20.2869 7.808 21.6469 8.384 23.3589 8.832C24.2709 9.088 24.7509 9.232 24.7509 9.568V9.6C24.7509 9.904 24.5109 10.064 23.9829 10.064C23.0869 10.064 21.9989 9.728 21.0069 9.072L19.8709 10.912C21.0709 11.776 22.5109 12.192 23.9669 12.192ZM28.7457 2.56H31.9137V0.32H28.7457V2.56ZM28.8097 12H31.8497V3.344H28.8097V12ZM33.6066 12H36.6466V0.32H33.6066V12ZM40.8994 14.608C42.6274 14.608 43.4434 13.808 44.1954 11.792L47.3634 3.344H44.2434L42.6114 8.56L40.8834 3.344H37.6994L41.0914 11.84C40.8994 12.112 40.6914 12.192 40.3874 12.192C40.0514 12.192 39.5394 12.016 39.0594 11.728L38.1154 13.856C38.9154 14.304 39.8274 14.608 40.8994 14.608Z" fill="black"/>
</svg>
