<svg width="70" height="15" viewBox="0 0 70 15" fill="none" xmlns="http://www.w3.org/2000/svg">
<path d="M0.437313 12H3.54131V8.8H5.07731C7.86131 8.8 9.89331 7.408 9.89331 4.768V4.736C9.89331 2.256 8.06931 0.799999 5.23731 0.799999H0.437313V12ZM3.54131 6.368V3.408H4.99731C6.11731 3.408 6.78931 3.92 6.78931 4.88V4.912C6.78931 5.792 6.11731 6.368 5.01331 6.368H3.54131ZM11.0269 12H14.0669V9.312C14.0669 7.312 14.9629 6.4 16.5469 6.4H16.8029V3.2C15.3629 3.136 14.5629 3.904 14.0669 5.088V3.344H11.0269V12ZM22.1304 12.208C24.9144 12.208 26.9304 10.144 26.9304 7.68V7.648C26.9304 5.184 24.9304 3.152 22.1624 3.152C19.3784 3.152 17.3624 5.216 17.3624 7.68V7.712C17.3624 10.176 19.3624 12.208 22.1304 12.208ZM22.1624 9.632C21.0904 9.632 20.3224 8.736 20.3224 7.68V7.648C20.3224 6.608 21.0264 5.728 22.1304 5.728C23.2024 5.728 23.9704 6.624 23.9704 7.68V7.712C23.9704 8.752 23.2664 9.632 22.1624 9.632ZM28.2144 14.56H31.2544V10.944C31.8144 11.6 32.5824 12.192 33.8944 12.192C35.9424 12.192 37.7184 10.48 37.7184 7.664V7.632C37.7184 4.864 35.9424 3.152 33.8784 3.152C32.5824 3.152 31.8464 3.776 31.2544 4.496V3.344H28.2144V14.56ZM32.9504 9.648C31.9744 9.648 31.1904 8.832 31.1904 7.68V7.648C31.1904 6.512 31.9744 5.696 32.9504 5.696C33.9424 5.696 34.7264 6.512 34.7264 7.648V7.68C34.7264 8.848 33.9424 9.648 32.9504 9.648ZM43.3149 12.208C45.0429 12.208 46.2429 11.504 47.0749 10.448L45.3949 9.056C44.7709 9.664 44.1949 9.936 43.4749 9.936C42.5309 9.936 41.8429 9.456 41.6029 8.512H47.3949C47.4109 8.304 47.4109 8.08 47.4109 7.888C47.4109 5.344 46.0349 3.152 43.0429 3.152C40.4829 3.152 38.6749 5.152 38.6749 7.68V7.712C38.6749 10.4 40.5949 12.208 43.3149 12.208ZM41.5549 6.96C41.7149 6.016 42.2589 5.392 43.0589 5.392C43.8909 5.392 44.4509 6 44.5629 6.96H41.5549ZM48.7144 12H51.7544V9.312C51.7544 7.312 52.6504 6.4 54.2344 6.4H54.4904V3.2C53.0504 3.136 52.2504 3.904 51.7544 5.088V3.344H48.7144V12ZM55.6222 12H58.6622V0.32H55.6222V12ZM62.9151 14.608C64.6431 14.608 65.4591 13.808 66.2111 11.792L69.3791 3.344H66.2591L64.6271 8.56L62.8991 3.344H59.7151L63.1071 11.84C62.9151 12.112 62.7071 12.192 62.4031 12.192C62.0671 12.192 61.5551 12.016 61.0751 11.728L60.1311 13.856C60.9311 14.304 61.8431 14.608 62.9151 14.608Z" fill="black"/>
</svg>
