<svg width="80" height="80" viewBox="0 0 80 80" fill="none" xmlns="http://www.w3.org/2000/svg">
<circle cx="40" cy="40" r="40" fill="white"/>
<path d="M28.3435 33.657L40 22.0005L51.6565 33.657" stroke="#FF5C35" stroke-width="4" stroke-linecap="round" stroke-linejoin="round"/>
<path d="M23.2 57.28H27.08V46.68H31.28V43.28H19V46.68H23.2V57.28Z" fill="#FF5C35"/>
<path d="M39.4177 57.56C43.7377 57.56 46.9777 54.3 46.9777 50.28V50.24C46.9777 46.22 43.7777 43 39.4577 43C35.1377 43 31.8977 46.26 31.8977 50.28V50.32C31.8977 54.34 35.0977 57.56 39.4177 57.56ZM39.4577 54.06C37.3377 54.06 35.8777 52.3 35.8777 50.28V50.24C35.8777 48.22 37.2977 46.5 39.4177 46.5C41.5577 46.5 43.0177 48.26 43.0177 50.28V50.32C43.0177 52.34 41.5977 54.06 39.4577 54.06Z" fill="#FF5C35"/>
<path d="M48.9987 57.28H52.8787V53.28H54.7988C58.2788 53.28 60.8188 51.54 60.8188 48.24V48.2C60.8188 45.1 58.5388 43.28 54.9988 43.28H48.9987V57.28ZM52.8787 50.24V46.54H54.6987C56.0987 46.54 56.9388 47.18 56.9388 48.38V48.42C56.9388 49.52 56.0988 50.24 54.7188 50.24H52.8787Z" fill="#FF5C35"/>
</svg>
