<svg width="107" height="36" viewBox="0 0 107 36" fill="none" xmlns="http://www.w3.org/2000/svg">
<path d="M13.7657 35H23.1258V22.28L35.8938 1.4H25.4778L18.5178 13.64L11.6058 1.4H0.99775L13.7657 22.424V35ZM52.5126 35.672C62.8806 35.672 70.6566 27.848 70.6566 18.2V18.104C70.6566 8.456 62.9766 0.727998 52.6086 0.727998C42.2406 0.727998 34.4646 8.552 34.4646 18.2V18.296C34.4646 27.944 42.1446 35.672 52.5126 35.672ZM52.6086 27.272C47.5206 27.272 44.0166 23.048 44.0166 18.2V18.104C44.0166 13.256 47.4246 9.128 52.5126 9.128C57.6486 9.128 61.1526 13.352 61.1526 18.2V18.296C61.1526 23.144 57.7446 27.272 52.6086 27.272ZM90.6273 35.624C100.179 35.624 106.371 30.872 106.371 20.024V1.4H96.9153V20.312C96.9153 25.016 94.4673 27.224 90.7233 27.224C86.9793 27.224 84.5312 24.92 84.5312 20.072V1.4H75.0753V20.264C75.0753 30.776 81.0753 35.624 90.6273 35.624Z" fill="#FF5C35"/>
</svg>
