<svg width="300" height="203" viewBox="0 0 300 203" fill="none" xmlns="http://www.w3.org/2000/svg">
<path d="M0 0H16.7963C20.9127 0 23.815 1.03111 25.7338 2.94602C27.0436 4.2558 27.8399 5.98758 27.8399 8.23292V8.32449C27.8399 12.1145 25.6861 14.3598 22.7878 15.6218C26.765 16.9316 29.289 19.177 29.289 23.6239V23.7154C29.289 29.3288 24.7027 32.7446 16.8918 32.7446H0V0ZM14.5509 13.054C17.3098 13.054 18.8545 12.1185 18.8545 10.1996V10.104C18.8545 8.32449 17.4492 7.29736 14.738 7.29736H8.84203V13.0501H14.5509V13.054ZM15.8607 25.4512C18.6196 25.4512 20.2121 24.3763 20.2121 22.4574V22.3619C20.2121 20.5823 18.8067 19.4158 15.7691 19.4158H8.84203V25.4512H15.8607Z" fill="white"/>
<path d="M32.6729 0H59.0119V7.71936H41.6543V12.6798H57.3717V19.8378H41.6543V25.0292H59.2468V32.7486H32.6729V0Z" fill="white"/>
<path d="M72.4561 7.95424H62.6307V0H91.3544V7.95424H81.529V32.7486H72.4521V7.95424H72.4561Z" fill="white"/>
<path d="M104.568 7.95424H94.7423V0H123.466V7.95424H113.641V32.7486H104.564V7.95424H104.568Z" fill="white"/>
<path d="M126.854 0H153.193V7.71936H135.835V12.6798H151.553V19.8378H135.835V25.0292H153.428V32.7486H126.854V0Z" fill="white"/>
<path d="M156.812 0H172.298C177.302 0 180.766 1.30978 182.964 3.55513C184.882 5.42624 185.866 7.95424 185.866 11.1789V11.2745C185.866 16.2787 183.198 19.603 179.13 21.3347L186.945 32.7486H176.466L169.87 22.8316H165.893V32.7486H156.816V0H156.812ZM171.876 15.7214C174.966 15.7214 176.741 14.2245 176.741 11.8398V11.7443C176.741 9.17246 174.87 7.86268 171.828 7.86268H165.889V15.7214H171.876Z" fill="white"/>
<path d="M0 122H16.7963C20.9127 122 23.815 123.031 25.7338 124.946C27.0436 126.256 27.8399 127.988 27.8399 130.233V130.328C27.8399 134.118 25.6861 136.364 22.7878 137.626C26.765 138.936 29.293 141.181 29.293 145.628V145.719C29.293 151.333 24.7067 154.749 16.8958 154.749H0V122ZM14.5509 135.054C17.3098 135.054 18.8545 134.118 18.8545 132.2V132.104C18.8545 130.324 17.4492 129.297 14.738 129.297H8.84203V135.05H14.5509V135.054ZM15.8607 147.451C18.6196 147.451 20.2121 146.376 20.2121 144.457V144.362C20.2121 142.582 18.8067 141.416 15.7691 141.416H8.84203V147.451H15.8607Z" fill="white"/>
<path d="M32.6729 122H59.0119V129.719H41.6543V134.68H57.3757V141.838H41.6543V147.029H59.2468V154.749H32.6729V122Z" fill="white"/>
<path d="M72.4561 129.954H62.6307V122H91.3544V129.954H81.529V154.749H72.4521V129.954H72.4561Z" fill="white"/>
<path d="M104.568 129.954H94.7423V122H123.466V129.954H113.641V154.749H104.564V129.954H104.568Z" fill="white"/>
<path d="M126.854 122H153.193V129.719H135.835V134.68H151.557V141.838H135.835V147.029H153.428V154.749H126.854V122Z" fill="white"/>
<path d="M156.812 122H172.298C177.302 122 180.766 123.31 182.964 125.555C184.882 127.426 185.866 129.954 185.866 133.183V133.278C185.866 138.283 183.198 141.607 179.13 143.339L186.945 154.753H176.466L169.87 144.836H165.893V154.753H156.816V122.004L156.812 122ZM171.876 137.721C174.966 137.721 176.741 136.224 176.741 133.84V133.744C176.741 131.172 174.87 129.863 171.828 129.863H165.889V137.721H171.876Z" fill="white"/>
<path d="M9.82536 56.611H0V48.6567H28.7237V56.611H18.8983V81.4053H9.82536V56.611Z" fill="white"/>
<path d="M29.8543 65.1267V65.0312C29.8543 55.6278 37.4343 48 47.5383 48C57.6424 48 65.1308 55.5322 65.1308 64.9356V65.0312C65.1308 74.4345 57.5508 82.0623 47.4468 82.0623C37.3427 82.0623 29.8543 74.5301 29.8543 65.1267ZM55.8668 65.1267V65.0312C55.8668 60.3056 52.451 56.1891 47.4468 56.1891C42.4425 56.1891 39.1661 60.214 39.1661 64.9396V65.0351C39.1661 69.7607 42.5819 73.8772 47.5383 73.8772C52.4948 73.8772 55.8668 69.8523 55.8668 65.1267Z" fill="white"/>
<path d="M68.5148 48.6606H78.1053L85.9162 61.3405L93.7311 48.6606H103.322V81.4092H94.2924V62.6025L85.9162 75.4216H85.7291L77.4006 62.698V81.4132H68.5108V48.6606H68.5148Z" fill="white"/>
<path d="M106.706 65.1267V65.0312C106.706 55.6278 114.286 48 124.39 48C134.494 48 141.982 55.5322 141.982 64.9356V65.0312C141.982 74.4345 134.402 82.0623 124.298 82.0623C114.194 82.0623 106.706 74.5301 106.706 65.1267ZM132.718 65.1267V65.0312C132.718 60.3056 129.302 56.1891 124.298 56.1891C119.294 56.1891 116.017 60.214 116.017 64.9396V65.0351C116.017 69.7607 119.433 73.8772 124.39 73.8772C129.346 73.8772 132.718 69.8523 132.718 65.1267Z" fill="white"/>
<path d="M145.37 48.6606H160.856C165.861 48.6606 169.324 49.9704 171.522 52.2158C173.441 54.0869 174.424 56.6149 174.424 59.8396V59.9351C174.424 64.9394 171.757 68.2636 167.688 69.9954L175.503 81.4092H165.025L158.428 71.4923H154.451V81.4092H145.374V48.6606H145.37ZM160.434 64.382C163.524 64.382 165.299 62.8851 165.299 60.5004V60.4049C165.299 57.8331 163.428 56.5233 160.387 56.5233H154.447V64.382H160.434Z" fill="white"/>
<path d="M178.883 48.6606H194.369C199.374 48.6606 202.837 49.9704 205.035 52.2158C206.954 54.0869 207.937 56.6149 207.937 59.8396V59.9351C207.937 64.9394 205.27 68.2636 201.201 69.9954L209.016 81.4092H198.538L191.941 71.4923H187.964V81.4092H178.887V48.6606H178.883ZM193.947 64.382C197.037 64.382 198.812 62.8851 198.812 60.5004V60.4049C198.812 57.8331 196.941 56.5233 193.9 56.5233H187.96V64.382H193.947Z" fill="white"/>
<path d="M210.139 65.1267V65.0312C210.139 55.6278 217.719 48 227.823 48C237.927 48 245.415 55.5322 245.415 64.9356V65.0312C245.415 74.4345 237.835 82.0623 227.731 82.0623C217.627 82.0623 210.139 74.5301 210.139 65.1267ZM236.151 65.1267V65.0312C236.151 60.3056 232.735 56.1891 227.731 56.1891C222.727 56.1891 219.45 60.214 219.45 64.9396V65.0351C219.45 69.7607 222.866 73.8772 227.827 73.8772C232.787 73.8772 236.155 69.8523 236.155 65.1267H236.151Z" fill="white"/>
<path d="M245.415 48.66H255.006L260.714 67.6061L267.028 48.5645H274.839L281.153 67.6061L286.862 48.66H296.266L285.318 81.6434H277.411L270.815 62.7889L264.266 81.6434H256.359L245.411 48.66H245.415Z" fill="white"/>
<path d="M291.277 85.3542C293.921 85.0397 295.302 83.7737 295.227 81.6438H292.185V73.9443H300V80.2225C300 86.0668 296.803 88.0773 291.867 88.2365L291.273 85.3542H291.277Z" fill="white"/>
<path d="M0 169.663H9.59048L17.4014 182.343L25.2163 169.663H34.8068V202.412H25.7776V183.605L17.4014 196.424H17.2143L8.88582 183.7V202.416H0V169.667V169.663Z" fill="white"/>
<path d="M38.1947 169.663H64.5337V177.382H47.1761V182.343H62.8974V189.501H47.1761V194.692H64.7686V202.412H38.1947V169.663Z" fill="white"/>
<path d="M68.1525 194.693H75.8719V202.412H68.1525V194.693Z" fill="white"/>
</svg>
