<svg width="1170" height="204" viewBox="0 0 1170 204" fill="none" xmlns="http://www.w3.org/2000/svg">
<path d="M0 1.5376H39.0889C48.6689 1.5376 55.4231 3.93723 59.8888 8.39368C62.937 11.4419 64.79 15.4721 64.79 20.6976V20.9107C64.79 29.7309 59.7776 34.9564 53.0327 37.8934C62.2884 40.9415 68.1624 46.167 68.1624 56.516V56.7291C68.1624 69.7927 57.4892 77.742 39.3113 77.742H0V1.5376ZM33.8635 31.9082C40.2841 31.9082 43.8789 29.7309 43.8789 25.2652V25.0428C43.8789 20.9014 40.6084 18.511 34.2989 18.511H20.5775V31.8989H33.8635V31.9082ZM36.9117 60.7593C43.3323 60.7593 47.0383 58.2578 47.0383 53.7921V53.5697C47.0383 49.4283 43.7677 46.7136 36.6986 46.7136H20.5775V60.7593H36.9117Z" fill="white"/>
<path d="M76.0381 1.5376H137.335V19.5024H96.9399V31.0465H133.518V47.705H96.9399V59.7865H137.882V77.7513H76.0381V1.5376Z" fill="white"/>
<path d="M168.623 20.0398H145.757V1.5376H212.604V20.0398H189.738V77.742H168.614V20.0398H168.623Z" fill="white"/>
<path d="M243.354 20.0398H220.488V1.5376H287.335V20.0398H264.469V77.742H243.345V20.0398H243.354Z" fill="white"/>
<path d="M295.219 1.5376H356.516V19.5024H316.121V31.0465H352.699V47.705H316.121V59.7865H357.062V77.7513H295.219V1.5376Z" fill="white"/>
<path d="M364.938 1.5376H400.978C412.624 1.5376 420.685 4.58578 425.799 9.81122C430.265 14.1658 432.553 20.049 432.553 27.5536V27.776C432.553 39.4221 426.346 47.1583 416.877 51.1886L435.064 77.7513H410.679L395.327 54.6722H386.071V77.7513H364.947V1.5376H364.938ZM399.996 38.125C407.186 38.125 411.318 34.6414 411.318 29.0916V28.8693C411.318 22.8841 406.963 19.8359 399.885 19.8359H386.062V38.125H399.996Z" fill="white"/>
<path d="M494.684 20.0402H471.818V1.53809H538.665V20.0402H515.799V77.7425H494.675V20.0402H494.684Z" fill="white"/>
<path d="M541.297 39.8579V39.6356C541.297 17.7517 558.937 0 582.452 0C605.966 0 623.394 17.5293 623.394 39.4132V39.6356C623.394 61.5194 605.753 79.2711 582.239 79.2711C558.724 79.2711 541.297 61.7418 541.297 39.8579ZM601.834 39.8579V39.6356C601.834 28.638 593.885 19.0581 582.239 19.0581C570.593 19.0581 562.968 28.4249 562.968 39.4225V39.6448C562.968 50.6424 570.917 60.2223 582.452 60.2223C593.987 60.2223 601.834 50.8554 601.834 39.8579Z" fill="white"/>
<path d="M631.269 1.53809H653.588L671.766 31.047L689.953 1.53809H712.273V77.7518H691.26V33.984L671.766 63.8173H671.331L651.948 34.2064V77.761H631.26V1.53809H631.269Z" fill="white"/>
<path d="M720.157 39.8579V39.6356C720.157 17.7517 737.798 0 761.312 0C784.827 0 802.254 17.5293 802.254 39.4132V39.6356C802.254 61.5194 784.614 79.2711 761.099 79.2711C737.585 79.2711 720.157 61.7418 720.157 39.8579ZM780.695 39.8579V39.6356C780.695 28.638 772.745 19.0581 761.099 19.0581C749.453 19.0581 741.828 28.4249 741.828 39.4225V39.6448C741.828 50.6424 749.777 60.2223 761.312 60.2223C772.847 60.2223 780.695 50.8554 780.695 39.8579Z" fill="white"/>
<path d="M810.13 1.53809H846.171C857.817 1.53809 865.877 4.58626 870.992 9.81171C875.457 14.1662 877.746 20.0495 877.746 27.5541V27.7765C877.746 39.4226 871.538 47.1588 862.069 51.1891L880.256 77.7518H855.871L840.519 54.6727H831.263V77.7518H810.139V1.53809H810.13ZM845.189 38.1255C852.378 38.1255 856.51 34.6418 856.51 29.0921V28.8698C856.51 22.8846 852.156 19.8364 845.077 19.8364H831.254V38.1255H845.189Z" fill="white"/>
<path d="M888.122 1.53809H924.163C935.809 1.53809 943.869 4.58626 948.984 9.81171C953.449 14.1662 955.738 20.0495 955.738 27.5541V27.7765C955.738 39.4226 949.53 47.1588 940.062 51.1891L958.249 77.7518H933.863L918.511 54.6727H909.255V77.7518H888.131V1.53809H888.122ZM923.181 38.1255C930.37 38.1255 934.503 34.6418 934.503 29.0921V28.8698C934.503 22.8846 930.148 19.8364 923.07 19.8364H909.246V38.1255H923.181Z" fill="white"/>
<path d="M960.87 39.8579V39.6356C960.87 17.7517 978.511 0 1002.03 0C1025.54 0 1042.97 17.5293 1042.97 39.4132V39.6356C1042.97 61.5194 1025.33 79.2711 1001.81 79.2711C978.298 79.2711 960.87 61.7418 960.87 39.8579ZM1021.41 39.8579V39.6356C1021.41 28.638 1013.46 19.0581 1001.81 19.0581C990.166 19.0581 982.541 28.4249 982.541 39.4225V39.6448C982.541 50.6424 990.49 60.2223 1002.03 60.2223C1013.58 60.2223 1021.42 50.8554 1021.42 39.8579H1021.41Z" fill="white"/>
<path d="M1042.97 1.53779H1065.29L1078.57 45.6298L1093.27 1.31543H1111.45L1126.14 45.6298L1139.43 1.53779H1161.31L1135.83 78.2981H1117.43L1102.08 34.4192L1086.84 78.2981H1068.44L1042.97 1.53779Z" fill="white"/>
<path d="M1149.69 86.9333C1155.84 86.2014 1159.06 83.2551 1158.88 78.2983H1151.8V60.3799H1169.99V74.9907C1169.99 88.5917 1162.55 93.2705 1151.06 93.6411L1149.68 86.9333H1149.69Z" fill="white"/>
<path d="M0 127.412H39.0889C48.6689 127.412 55.4231 129.811 59.8888 134.268C62.937 137.316 64.79 141.346 64.79 146.572V146.794C64.79 155.614 59.7776 160.84 53.0327 163.777C62.2884 166.825 68.1717 172.05 68.1717 182.399V182.612C68.1717 195.676 57.4984 203.625 39.3206 203.625H0V127.412ZM33.8635 157.791C40.2841 157.791 43.8789 155.614 43.8789 151.148V150.926C43.8789 146.785 40.6084 144.394 34.2989 144.394H20.5775V157.782H33.8635V157.791ZM36.9117 186.643C43.3323 186.643 47.0383 184.141 47.0383 179.675V179.453C47.0383 175.312 43.7677 172.597 36.6986 172.597H20.5775V186.643H36.9117Z" fill="white"/>
<path d="M76.0381 127.412H137.335V145.376H96.9399V156.921H133.527V173.579H96.9399V185.661H137.882V203.625H76.0381V127.412Z" fill="white"/>
<path d="M168.623 145.914H145.757V127.402H212.604V145.914H189.738V203.616H168.614V145.914H168.623Z" fill="white"/>
<path d="M243.354 145.914H220.488V127.402H287.335V145.914H264.469V203.616H243.345V145.914H243.354Z" fill="white"/>
<path d="M295.219 127.412H356.516V145.376H316.121V156.921H352.708V173.579H316.121V185.661H357.062V203.625H295.219V127.412Z" fill="white"/>
<path d="M364.938 127.412H400.978C412.624 127.412 420.685 130.46 425.799 135.685C430.265 140.04 432.553 145.923 432.553 153.437V153.659C432.553 165.305 426.346 173.042 416.877 177.072L435.064 203.635H410.679L395.327 180.556H386.071V203.635H364.947V127.412H364.938ZM399.996 163.999C407.186 163.999 411.318 160.515 411.318 154.966V154.743C411.318 148.758 406.963 145.71 399.885 145.71H386.062V163.999H399.996Z" fill="white"/>
<path d="M471.819 127.412H494.138L512.316 156.921L530.503 127.412H552.823V203.625H531.81V159.858L512.316 189.691H511.881L492.498 160.08V203.635H471.81V127.412H471.819Z" fill="white"/>
<path d="M560.707 127.412H622.004V145.376H581.609V156.921H618.196V173.579H581.609V185.661H622.551V203.625H560.707V127.412Z" fill="white"/>
<path d="M630.427 185.661H648.392V203.625H630.427V185.661Z" fill="white"/>
</svg>
