<svg width="95" height="30" viewBox="0 0 95 30" fill="none" xmlns="http://www.w3.org/2000/svg">
<path d="M0.405875 24H18.5819V18.72H6.54988V15.168H17.3019V10.272H6.54988V6.88H18.4219V1.6H0.405875V24ZM26.3576 24.384C28.6296 24.384 30.2616 23.52 31.4456 22.208V24H37.4616V14.048C37.4616 11.616 36.9176 9.824 35.6056 8.544C34.2296 7.168 32.1176 6.432 29.0136 6.432C26.0376 6.432 23.9576 6.976 22.0056 7.776L23.2536 12.064C24.7896 11.456 26.1976 11.104 28.0216 11.104C30.3576 11.104 31.4776 12.128 31.4776 13.92V14.208C30.4856 13.856 28.9176 13.536 27.3176 13.536C23.2536 13.536 20.5336 15.392 20.5336 18.976V19.04C20.5336 22.496 23.0616 24.384 26.3576 24.384ZM28.5336 20.576C27.2856 20.576 26.3896 19.872 26.3896 18.688V18.624C26.3896 17.344 27.4136 16.48 29.1736 16.48C30.0696 16.48 30.9336 16.672 31.5416 16.928V17.728C31.5416 19.456 30.2936 20.576 28.5336 20.576ZM47.4339 24.384C51.6579 24.384 54.5059 22.4 54.5059 18.592V18.528C54.5059 15.168 51.7859 13.984 48.3619 13.024C46.5379 12.48 45.5459 12.16 45.5459 11.488V11.424C45.5459 10.944 46.0259 10.592 46.9539 10.592C48.3299 10.592 50.2819 11.2 52.0739 12.192L54.1539 8.352C52.1699 7.072 49.5459 6.336 47.0179 6.336C43.0179 6.336 40.0739 8.384 40.0739 12.064V12.128C40.0739 15.616 42.7939 16.768 46.2179 17.664C48.0419 18.176 49.0019 18.464 49.0019 19.136V19.2C49.0019 19.808 48.5219 20.128 47.4659 20.128C45.6739 20.128 43.4979 19.456 41.5139 18.144L39.2419 21.824C41.6419 23.552 44.5219 24.384 47.4339 24.384ZM56.9914 5.12H63.3274V0.639999H56.9914V5.12ZM57.1194 24H63.1994V6.688H57.1194V24ZM66.7131 24H72.7931V0.639999H66.7131V24ZM81.2989 29.216C84.7549 29.216 86.3869 27.616 87.8909 23.584L94.2269 6.688H87.9869L84.7229 17.12L81.2669 6.688H74.8989L81.6829 23.68C81.2989 24.224 80.8829 24.384 80.2749 24.384C79.6029 24.384 78.5789 24.032 77.6189 23.456L75.7309 27.712C77.3309 28.608 79.1549 29.216 81.2989 29.216Z" fill="white"/>
</svg>
