<svg width="182" height="25" viewBox="0 0 182 25" fill="none" xmlns="http://www.w3.org/2000/svg">
<path d="M0.984 24H7.192V16H17.784V10.848H7.192V7.04H18.904V1.6H0.984V24ZM21.382 5.12H27.718V0.639999H21.382V5.12ZM21.51 24H27.59V6.688H21.51V24ZM30.9758 24H37.0558V18.624C37.0558 14.624 38.8478 12.8 42.0158 12.8H42.5278V6.4C39.6478 6.272 38.0478 7.808 37.0558 10.176V6.688H30.9758V24ZM51.5433 24.384C55.7673 24.384 58.6153 22.4 58.6153 18.592V18.528C58.6153 15.168 55.8953 13.984 52.4713 13.024C50.6473 12.48 49.6553 12.16 49.6553 11.488V11.424C49.6553 10.944 50.1353 10.592 51.0633 10.592C52.4392 10.592 54.3913 11.2 56.1833 12.192L58.2633 8.352C56.2793 7.072 53.6553 6.336 51.1273 6.336C47.1273 6.336 44.1833 8.384 44.1833 12.064V12.128C44.1833 15.616 46.9033 16.768 50.3273 17.664C52.1513 18.176 53.1113 18.464 53.1113 19.136V19.2C53.1113 19.808 52.6313 20.128 51.5753 20.128C49.7833 20.128 47.6073 19.456 45.6233 18.144L43.3513 21.824C45.7513 23.552 48.6313 24.384 51.5433 24.384ZM67.6683 24.352C69.3643 24.352 70.8043 23.968 71.8923 23.36V18.592C71.1563 18.944 70.3883 19.168 69.5883 19.168C68.4683 19.168 67.9243 18.656 67.9243 17.44V11.584H71.9563V6.688H67.9243V2.304H61.8443V6.688H59.7963V11.584H61.8443V18.624C61.8443 22.752 64.0203 24.352 67.6683 24.352ZM83.7965 24H89.8765V11.2L95.5725 19.904H95.7005L101.429 11.136V24H107.605V1.6H101.045L95.7005 10.272L90.3565 1.6H83.7965V24ZM120.058 24.416C125.626 24.416 129.658 20.288 129.658 15.36V15.296C129.658 10.368 125.658 6.304 120.122 6.304C114.554 6.304 110.522 10.432 110.522 15.36V15.424C110.522 20.352 114.522 24.416 120.058 24.416ZM120.122 19.264C117.978 19.264 116.442 17.472 116.442 15.36V15.296C116.442 13.216 117.85 11.456 120.058 11.456C122.202 11.456 123.738 13.248 123.738 15.36V15.424C123.738 17.504 122.33 19.264 120.122 19.264ZM136.857 24.128H142.393L149.305 6.688H143.001L139.673 16.8L136.345 6.688H129.945L136.857 24.128ZM158.771 24.416C162.227 24.416 164.627 23.008 166.291 20.896L162.931 18.112C161.683 19.328 160.531 19.872 159.091 19.872C157.203 19.872 155.827 18.912 155.347 17.024H166.931C166.963 16.608 166.963 16.16 166.963 15.776C166.963 10.688 164.211 6.304 158.227 6.304C153.107 6.304 149.491 10.304 149.491 15.36V15.424C149.491 20.8 153.331 24.416 158.771 24.416ZM155.251 13.92C155.571 12.032 156.659 10.784 158.259 10.784C159.923 10.784 161.043 12 161.267 13.92H155.251ZM169.57 24H175.65V18.624C175.65 14.624 177.442 12.8 180.61 12.8H181.122V6.4C178.242 6.272 176.642 7.808 175.65 10.176V6.688H169.57V24Z" fill="white"/>
</svg>
