<svg width="67" height="15" viewBox="0 0 67 15" fill="none" xmlns="http://www.w3.org/2000/svg">
<path d="M0.101375 12H3.20538V7.744H7.18937V12H10.2934V0.799999H7.18937V4.992H3.20538V0.799999H0.101375V12ZM14.5773 12.192C15.7133 12.192 16.5293 11.76 17.1213 11.104V12H20.1293V7.024C20.1293 5.808 19.8573 4.912 19.2013 4.272C18.5133 3.584 17.4573 3.216 15.9053 3.216C14.4173 3.216 13.3773 3.488 12.4013 3.888L13.0253 6.032C13.7933 5.728 14.4973 5.552 15.4093 5.552C16.5773 5.552 17.1373 6.064 17.1373 6.96V7.104C16.6413 6.928 15.8573 6.768 15.0573 6.768C13.0253 6.768 11.6653 7.696 11.6653 9.488V9.52C11.6653 11.248 12.9293 12.192 14.5773 12.192ZM15.6653 10.288C15.0413 10.288 14.5933 9.936 14.5933 9.344V9.312C14.5933 8.672 15.1053 8.24 15.9852 8.24C16.4333 8.24 16.8653 8.336 17.1693 8.464V8.864C17.1693 9.728 16.5453 10.288 15.6653 10.288ZM21.6754 14.56H24.7154V10.944C25.2754 11.6 26.0434 12.192 27.3554 12.192C29.4034 12.192 31.1794 10.48 31.1794 7.664V7.632C31.1794 4.864 29.4034 3.152 27.3394 3.152C26.0434 3.152 25.3074 3.776 24.7154 4.496V3.344H21.6754V14.56ZM26.4114 9.648C25.4354 9.648 24.6514 8.832 24.6514 7.68V7.648C24.6514 6.512 25.4354 5.696 26.4114 5.696C27.4034 5.696 28.1874 6.512 28.1874 7.648V7.68C28.1874 8.848 27.4034 9.648 26.4114 9.648ZM32.4879 14.56H35.5279V10.944C36.0879 11.6 36.8559 12.192 38.1679 12.192C40.2159 12.192 41.9919 10.48 41.9919 7.664V7.632C41.9919 4.864 40.2159 3.152 38.1519 3.152C36.8559 3.152 36.1199 3.776 35.5279 4.496V3.344H32.4879V14.56ZM37.2239 9.648C36.2479 9.648 35.4639 8.832 35.4639 7.68V7.648C35.4639 6.512 36.2479 5.696 37.2239 5.696C38.2159 5.696 38.9999 6.512 38.9999 7.648V7.68C38.9999 8.848 38.2159 9.648 37.2239 9.648ZM43.3004 2.56H46.4684V0.32H43.3004V2.56ZM43.3644 12H46.4044V3.344H43.3644V12ZM48.1613 12H51.2013V0.32H48.1613V12ZM52.9581 12H55.9981V0.32H52.9581V12ZM60.251 14.608C61.979 14.608 62.795 13.808 63.547 11.792L66.715 3.344H63.595L61.963 8.56L60.235 3.344H57.051L60.443 11.84C60.251 12.112 60.043 12.192 59.739 12.192C59.403 12.192 58.891 12.016 58.411 11.728L57.467 13.856C58.267 14.304 59.179 14.608 60.251 14.608Z" fill="black"/>
</svg>
