<svg width="239" height="93" viewBox="0 0 239 93" fill="none" xmlns="http://www.w3.org/2000/svg">
<path d="M0.976 34H10.288V21.232H22.24V34H31.552V0.399998H22.24V12.976H10.288V0.399998H0.976V34ZM37.4916 34H64.7556V26.08H46.7076V20.752H62.8356V13.408H46.7076V8.32H64.5156V0.399998H37.4916V34ZM66.8193 34H76.6113L79.0113 28H91.9713L94.4193 34H104.403L90.0993 0.159998H81.1233L66.8193 34ZM81.7473 20.752L85.5393 11.2L89.2833 20.752H81.7473ZM107.664 34H133.248V25.84H116.976V0.399998H107.664V34ZM140.668 34H149.98V8.56H160.06V0.399998H130.588V8.56H140.668V34ZM164.148 34H173.46V21.232H185.412V34H194.724V0.399998H185.412V12.976H173.46V0.399998H164.148V34ZM210.359 34H219.72V21.28L232.488 0.399998H222.072L215.112 12.64L208.2 0.399998H197.591L210.359 21.424V34ZM0.976 92H10.288V81.824H14.368L21.136 92H31.888L23.872 80.288C28.048 78.512 30.784 75.104 30.784 69.968V69.872C30.784 66.56 29.776 63.968 27.808 62.048C25.552 59.744 22 58.4 16.864 58.4H0.976V92ZM10.288 74.528V66.464H16.384C19.504 66.464 21.424 67.808 21.424 70.448V70.544C21.424 72.992 19.6 74.528 16.432 74.528H10.288ZM35.476 92H62.74V84.08H44.692V78.752H60.82V71.408H44.692V66.32H62.5V58.4H35.476V92ZM83.4333 92.672C90.8733 92.672 95.1453 89.456 98.3133 85.088L91.3053 80.096C89.2893 82.544 87.2253 84.176 83.7213 84.176C79.0173 84.176 75.7053 80.24 75.7053 75.2V75.104C75.7053 70.208 79.0173 66.224 83.7213 66.224C86.9373 66.224 89.1453 67.76 91.0653 70.16L98.0733 64.736C95.0973 60.608 90.6813 57.728 83.8173 57.728C73.6413 57.728 66.1053 65.408 66.1053 75.2V75.296C66.1053 85.328 73.8333 92.672 83.4333 92.672ZM118.278 92.672C128.646 92.672 136.422 84.848 136.422 75.2V75.104C136.422 65.456 128.742 57.728 118.374 57.728C108.006 57.728 100.23 65.552 100.23 75.2V75.296C100.23 84.944 107.91 92.672 118.278 92.672ZM118.374 84.272C113.286 84.272 109.782 80.048 109.782 75.2V75.104C109.782 70.256 113.19 66.128 118.278 66.128C123.414 66.128 126.918 70.352 126.918 75.2V75.296C126.918 80.144 123.51 84.272 118.374 84.272ZM141.273 92H150.585V81.824H154.665L161.433 92H172.185L164.169 80.288C168.345 78.512 171.081 75.104 171.081 69.968V69.872C171.081 66.56 170.073 63.968 168.105 62.048C165.849 59.744 162.297 58.4 157.161 58.4H141.273V92ZM150.585 74.528V66.464H156.681C159.801 66.464 161.721 67.808 161.721 70.448V70.544C161.721 72.992 159.897 74.528 156.729 74.528H150.585ZM175.773 92H188.541C200.637 92 207.693 84.8 207.693 75.104V75.008C207.693 65.312 200.733 58.4 188.733 58.4H175.773V92ZM185.085 83.744V66.656H188.877C194.445 66.656 198.141 69.776 198.141 75.152V75.248C198.141 80.672 194.445 83.744 188.877 83.744H185.085ZM225.207 92.576C233.367 92.576 238.791 88.496 238.791 81.632V81.536C238.791 75.248 233.991 72.752 226.263 71.072C221.607 70.016 220.455 69.344 220.455 67.808V67.712C220.455 66.512 221.559 65.552 223.815 65.552C226.791 65.552 230.151 66.704 233.223 68.864L237.879 62.288C234.231 59.36 229.767 57.824 224.055 57.824C215.991 57.824 211.047 62.336 211.047 68.576V68.672C211.047 75.584 216.567 77.6 223.719 79.232C228.279 80.288 229.383 81.056 229.383 82.448V82.544C229.383 83.984 228.039 84.848 225.543 84.848C221.655 84.848 217.959 83.456 214.647 80.816L209.463 87.008C213.591 90.704 219.255 92.576 225.207 92.576Z" fill="#FF5C35"/>
</svg>
