<svg width="50" height="46" viewBox="0 0 50 46" fill="none" xmlns="http://www.w3.org/2000/svg">
<g clip-path="url(#clip0_55_2878)">
<path d="M27.96 14.8301H7.98" stroke="#FF5C35" stroke-width="2.8" stroke-linecap="round" stroke-linejoin="round"/>
<path d="M27.96 22.7998H7.98" stroke="#FF5C35" stroke-width="2.8" stroke-linecap="round" stroke-linejoin="round"/>
<path d="M20.96 31.0996H7.98" stroke="#FF5C35" stroke-width="2.8" stroke-linecap="round" stroke-linejoin="round"/>
<path d="M34.76 41.4004V4.40039C34.76 2.74354 33.4168 1.40039 31.76 1.40039L4.39999 1.40039C2.74314 1.40039 1.39999 2.74354 1.39999 4.40039V41.4004C1.39999 43.0572 2.74314 44.4004 4.39999 44.4004H31.76C33.4168 44.4004 34.76 43.0572 34.76 41.4004Z" stroke="#FF5C35" stroke-width="2.8" stroke-linecap="round" stroke-linejoin="round"/>
<path d="M48.04 35.8398L44.45 41.3698L40.86 35.8398V2.25977H48.04V35.8398Z" stroke="#FF5C35" stroke-width="2.8" stroke-linecap="round" stroke-linejoin="round"/>
<path d="M44.45 43.5401V41.3701" stroke="#FF5C35" stroke-width="2.8" stroke-linecap="round" stroke-linejoin="round"/>
<path d="M40.34 35.0293H48.56" stroke="#FF5C35" stroke-width="2.8" stroke-linejoin="round"/>
<path d="M40.34 8.51953H48.56" stroke="#FF5C35" stroke-width="2.8" stroke-linejoin="round"/>
</g>
<defs>
<clipPath id="clip0_55_2878">
<rect width="49.44" height="45.8" fill="white"/>
</clipPath>
</defs>
</svg>
