<svg width="97" height="48" viewBox="0 0 97 48" fill="none" xmlns="http://www.w3.org/2000/svg">
<g clip-path="url(#clip0_55_2892)">
<path d="M51.5 46.4901L44.96 34.1801C42.3 29.4801 37.39 26.5801 32.08 26.5801H20.92C15.61 26.5801 10.7 29.4801 8.04 34.1801L1.5 46.4901" stroke="#FF5C35" stroke-width="3" stroke-linecap="round" stroke-linejoin="round"/>
<path d="M26.5 21.6002C32.0228 21.6002 36.5 17.1454 36.5 11.6502C36.5 6.15496 32.0228 1.7002 26.5 1.7002C20.9772 1.7002 16.5 6.15496 16.5 11.6502C16.5 17.1454 20.9772 21.6002 26.5 21.6002Z" stroke="#FF5C35" stroke-width="3" stroke-linecap="round" stroke-linejoin="round"/>
<path d="M17.5 9.65039H35.5" stroke="#FF5C35" stroke-width="3" stroke-linecap="round" stroke-linejoin="round"/>
<path d="M59.96 11.7598V14.6798C59.96 19.6898 56.37 23.7598 51.96 23.7598" stroke="#FF5C35" stroke-width="3" stroke-linecap="round" stroke-linejoin="round"/>
<path d="M79.96 11.7598V14.6798C79.96 19.6898 83.55 23.7598 87.96 23.7598" stroke="#FF5C35" stroke-width="3" stroke-linecap="round" stroke-linejoin="round"/>
<path d="M94.96 46.2996L88.42 33.9897C85.76 29.2897 80.85 26.3896 75.54 26.3896H64.38C59.07 26.3896 54.16 29.2897 51.5 33.9897" stroke="#FF5C35" stroke-width="3" stroke-linecap="round" stroke-linejoin="round"/>
<path d="M69.96 21.4C75.4829 21.4 79.96 16.9452 79.96 11.45C79.96 5.95477 75.4829 1.5 69.96 1.5C64.4372 1.5 59.96 5.95477 59.96 11.45C59.96 16.9452 64.4372 21.4 69.96 21.4Z" stroke="#FF5C35" stroke-width="3" stroke-linecap="round" stroke-linejoin="round"/>
<path d="M60.96 9.4502H78.96" stroke="#FF5C35" stroke-width="3" stroke-linecap="round" stroke-linejoin="round"/>
</g>
<defs>
<clipPath id="clip0_55_2892">
<rect width="96.46" height="47.99" fill="white"/>
</clipPath>
</defs>
</svg>
