<svg width="189" height="93" viewBox="0 0 189 93" fill="none" xmlns="http://www.w3.org/2000/svg">
<path d="M18.872 35.672C29.24 35.672 37.016 27.848 37.016 18.2V18.104C37.016 8.456 29.336 0.727998 18.968 0.727998C8.6 0.727998 0.824 8.552 0.824 18.2V18.296C0.824 27.944 8.504 35.672 18.872 35.672ZM18.968 27.272C13.88 27.272 10.376 23.048 10.376 18.2V18.104C10.376 13.256 13.784 9.128 18.872 9.128C24.008 9.128 27.512 13.352 27.512 18.2V18.296C27.512 23.144 24.104 27.272 18.968 27.272ZM41.8666 35H51.0826V16.568L65.4346 35H73.5946V1.4H64.3786V19.16L50.5546 1.4H41.8666V35ZM101.075 35H110.387V9.56H120.467V1.4H90.9946V9.56H101.075V35ZM124.554 35H133.866V22.232H145.818V35H155.13V1.4H145.818V13.976H133.866V1.4H124.554V35ZM161.07 35H188.334V27.08H170.286V21.752H186.414V14.408H170.286V9.32H188.094V1.4H161.07V35ZM1.976 93H11.096V73.8L19.64 86.856H19.832L28.424 73.704V93H37.688V59.4H27.848L19.832 72.408L11.816 59.4H1.976V93ZM43.6479 93H70.9119V85.08H52.8639V79.752H68.9919V72.408H52.8639V67.32H70.6719V59.4H43.6479V93ZM75.6635 93H88.4315C100.528 93 107.584 85.8 107.584 76.104V76.008C107.584 66.312 100.624 59.4 88.6235 59.4H75.6635V93ZM84.9755 84.744V67.656H88.7675C94.3355 67.656 98.0315 70.776 98.0315 76.152V76.248C98.0315 81.672 94.3355 84.744 88.7675 84.744H84.9755ZM112.559 93H121.919V59.4H112.559V93ZM125.382 93H135.174L137.574 87H150.534L152.982 93H162.966L148.662 59.16H139.686L125.382 93ZM140.31 79.752L144.102 70.2L147.846 79.752H140.31Z" fill="#FF5C35"/>
</svg>
