<svg width="139" height="30" viewBox="0 0 139 30" fill="none" xmlns="http://www.w3.org/2000/svg">
<path d="M0.374625 24H6.58263V17.6H9.65463C15.2226 17.6 19.2866 14.816 19.2866 9.536V9.472C19.2866 4.512 15.6386 1.6 9.97463 1.6H0.374625V24ZM6.58263 12.736V6.816H9.49463C11.7346 6.816 13.0786 7.84 13.0786 9.76V9.824C13.0786 11.584 11.7346 12.736 9.52663 12.736H6.58263ZM21.5539 24H27.6339V18.624C27.6339 14.624 29.4259 12.8 32.5939 12.8H33.1059V6.4C30.2259 6.272 28.6259 7.808 27.6339 10.176V6.688H21.5539V24ZM43.7609 24.416C49.3289 24.416 53.3609 20.288 53.3609 15.36V15.296C53.3609 10.368 49.3609 6.304 43.8249 6.304C38.2569 6.304 34.2249 10.432 34.2249 15.36V15.424C34.2249 20.352 38.2249 24.416 43.7609 24.416ZM43.8249 19.264C41.6809 19.264 40.1449 17.472 40.1449 15.36V15.296C40.1449 13.216 41.5529 11.456 43.7609 11.456C45.9049 11.456 47.4409 13.248 47.4409 15.36V15.424C47.4409 17.504 46.0329 19.264 43.8249 19.264ZM55.9289 29.12H62.0089V21.888C63.1289 23.2 64.6649 24.384 67.2889 24.384C71.3849 24.384 74.9369 20.96 74.9369 15.328V15.264C74.9369 9.728 71.3849 6.304 67.2569 6.304C64.6649 6.304 63.1929 7.552 62.0089 8.992V6.688H55.9289V29.12ZM65.4009 19.296C63.4489 19.296 61.8809 17.664 61.8809 15.36V15.296C61.8809 13.024 63.4489 11.392 65.4009 11.392C67.3849 11.392 68.9529 13.024 68.9529 15.296V15.36C68.9529 17.696 67.3849 19.296 65.4009 19.296ZM86.1299 24.416C89.5859 24.416 91.9859 23.008 93.6499 20.896L90.2899 18.112C89.0419 19.328 87.8899 19.872 86.4499 19.872C84.5619 19.872 83.1859 18.912 82.7059 17.024H94.2899C94.3219 16.608 94.3219 16.16 94.3219 15.776C94.3219 10.688 91.5699 6.304 85.5859 6.304C80.4659 6.304 76.8499 10.304 76.8499 15.36V15.424C76.8499 20.8 80.6899 24.416 86.1299 24.416ZM82.6099 13.92C82.9299 12.032 84.0179 10.784 85.6179 10.784C87.2819 10.784 88.4019 12 88.6259 13.92H82.6099ZM96.9289 24H103.009V18.624C103.009 14.624 104.801 12.8 107.969 12.8H108.481V6.4C105.601 6.272 104.001 7.808 103.009 10.176V6.688H96.9289V24ZM110.744 24H116.824V0.639999H110.744V24ZM125.33 29.216C128.786 29.216 130.418 27.616 131.922 23.584L138.258 6.688H132.018L128.754 17.12L125.298 6.688H118.93L125.714 23.68C125.33 24.224 124.914 24.384 124.306 24.384C123.634 24.384 122.61 24.032 121.65 23.456L119.762 27.712C121.362 28.608 123.186 29.216 125.33 29.216Z" fill="black"/>
</svg>
