<svg width="140" height="24" viewBox="0 0 140 24" fill="none" xmlns="http://www.w3.org/2000/svg">
<path d="M11.2528 23.384C16.6928 23.384 20.3088 20.664 20.3088 16.088V16.024C20.3088 11.832 17.1088 10.168 11.9568 9.048C8.85275 8.344 8.08475 7.896 8.08475 6.872V6.808C8.08475 6.008 8.82075 5.368 10.3248 5.368C12.3088 5.368 14.5488 6.136 16.5968 7.576L19.7008 3.192C17.2688 1.24 14.2928 0.216 10.4848 0.216C5.10875 0.216 1.81275 3.224 1.81275 7.384V7.448C1.81275 12.056 5.49275 13.4 10.2608 14.488C13.3008 15.192 14.0368 15.704 14.0368 16.632V16.696C14.0368 17.656 13.1408 18.232 11.4768 18.232C8.88475 18.232 6.42075 17.304 4.21275 15.544L0.75675 19.672C3.50875 22.136 7.28475 23.384 11.2528 23.384ZM23.3278 23H40.3838V17.56H29.5358V0.599998H23.3278V23ZM53.0293 23.448C59.9413 23.448 65.1253 18.232 65.1253 11.8V11.736C65.1253 5.304 60.0053 0.151999 53.0933 0.151999C46.1813 0.151999 40.9973 5.368 40.9973 11.8V11.864C40.9973 18.296 46.1173 23.448 53.0293 23.448ZM53.0933 17.848C49.7013 17.848 47.3653 15.032 47.3653 11.8V11.736C47.3653 8.504 49.6373 5.752 53.0293 5.752C56.4533 5.752 58.7893 8.568 58.7893 11.8V11.864C58.7893 15.096 56.5173 17.848 53.0933 17.848ZM79.783 23.448C83.847 23.448 87.143 21.944 89.511 19.992V9.912H79.207V14.456H83.623V17.176C82.695 17.784 81.543 18.104 80.039 18.104C76.487 18.104 73.959 15.512 73.959 11.896V11.832C73.959 8.408 76.455 5.688 79.687 5.688C81.895 5.688 83.495 6.456 85.095 7.8L88.743 3.416C86.375 1.368 83.591 0.151999 79.655 0.151999C72.711 0.151999 67.591 5.272 67.591 11.8V11.864C67.591 18.648 72.807 23.448 79.783 23.448ZM91.1608 23H97.6888L99.2888 19H107.929L109.561 23H116.217L106.681 0.439999H100.697L91.1608 23ZM101.113 14.168L103.641 7.8L106.137 14.168H101.113ZM118.39 23H124.534V10.712L134.102 23H139.542V0.599998H133.398V12.44L124.182 0.599998H118.39V23Z" fill="white"/>
</svg>
