<svg width="968" height="356" viewBox="0 0 968 356" fill="none" xmlns="http://www.w3.org/2000/svg">
<path d="M23.164 78H44.116V20.76H66.796V2.39999H0.484V20.76H23.164V78ZM110.739 79.512C134.067 79.512 151.563 61.908 151.563 40.2V39.984C151.563 18.276 134.283 0.887995 110.955 0.887995C87.6273 0.887995 70.1313 18.492 70.1313 40.2V40.416C70.1313 62.124 87.4113 79.512 110.739 79.512ZM110.955 60.612C99.5073 60.612 91.6233 51.108 91.6233 40.2V39.984C91.6233 29.076 99.2913 19.788 110.739 19.788C122.295 19.788 130.179 29.292 130.179 40.2V40.416C130.179 51.324 122.511 60.612 110.955 60.612ZM162.477 78H182.997V34.8L202.221 64.176H202.653L221.985 34.584V78H242.829V2.39999H220.689L202.653 31.668L184.617 2.39999H162.477V78ZM294.255 79.512C317.583 79.512 335.079 61.908 335.079 40.2V39.984C335.079 18.276 317.799 0.887995 294.471 0.887995C271.143 0.887995 253.647 18.492 253.647 40.2V40.416C253.647 62.124 270.927 79.512 294.255 79.512ZM294.471 60.612C283.023 60.612 275.139 51.108 275.139 40.2V39.984C275.139 29.076 282.807 19.788 294.255 19.788C305.811 19.788 313.695 29.292 313.695 40.2V40.416C313.695 51.324 306.027 60.612 294.471 60.612ZM345.993 78H366.945V55.104H376.125L391.353 78H415.545L397.509 51.648C406.905 47.652 413.061 39.984 413.061 28.428V28.212C413.061 20.76 410.793 14.928 406.365 10.608C401.289 5.42399 393.297 2.39999 381.741 2.39999H345.993V78ZM366.945 38.688V20.544H380.661C387.681 20.544 392.001 23.568 392.001 29.508V29.724C392.001 35.232 387.897 38.688 380.769 38.688H366.945ZM423.618 78H444.57V55.104H453.75L468.978 78H493.17L475.134 51.648C484.53 47.652 490.686 39.984 490.686 28.428V28.212C490.686 20.76 488.418 14.928 483.99 10.608C478.914 5.42399 470.922 2.39999 459.366 2.39999H423.618V78ZM444.57 38.688V20.544H458.286C465.306 20.544 469.626 23.568 469.626 29.508V29.724C469.626 35.232 465.522 38.688 458.394 38.688H444.57ZM539.259 79.512C562.587 79.512 580.083 61.908 580.083 40.2V39.984C580.083 18.276 562.803 0.887995 539.475 0.887995C516.147 0.887995 498.651 18.492 498.651 40.2V40.416C498.651 62.124 515.931 79.512 539.259 79.512ZM539.475 60.612C528.027 60.612 520.143 51.108 520.143 40.2V39.984C520.143 29.076 527.811 19.788 539.259 19.788C550.815 19.788 558.699 29.292 558.699 40.2V40.416C558.699 51.324 551.031 60.612 539.475 60.612ZM606.869 78.54H625.121L640.241 35.016L655.469 78.54H673.721L698.993 2.39999H677.285L664.109 46.14L649.529 2.184H631.493L616.913 46.14L603.737 2.39999H581.597L606.869 78.54ZM704.845 41.496C718.345 41.064 726.985 35.556 726.985 19.572V2.39999H705.709V23.46H713.917C714.241 29.292 710.353 32.856 703.117 33.612L704.845 41.496ZM767.72 79.296C786.08 79.296 798.284 70.116 798.284 54.672V54.456C798.284 40.308 787.484 34.692 770.096 30.912C759.62 28.536 757.028 27.024 757.028 23.568V23.352C757.028 20.652 759.512 18.492 764.588 18.492C771.284 18.492 778.844 21.084 785.756 25.944L796.232 11.148C788.024 4.56 777.98 1.104 765.128 1.104C746.984 1.104 735.86 11.256 735.86 25.296V25.512C735.86 41.064 748.28 45.6 764.372 49.272C774.632 51.648 777.116 53.376 777.116 56.508V56.724C777.116 59.964 774.092 61.908 768.476 61.908C759.728 61.908 751.412 58.776 743.96 52.836L732.296 66.768C741.584 75.084 754.328 79.296 767.72 79.296ZM4.696 208H43.684C61.72 208 72.304 200.116 72.304 187.156V186.94C72.304 176.68 66.472 171.496 57.292 168.472C63.988 165.556 68.956 160.372 68.956 151.624V151.408C68.956 146.224 67.12 142.228 64.096 139.204C59.668 134.776 52.972 132.4 43.468 132.4H4.696V208ZM25.108 162.532V149.248H38.716C44.98 149.248 48.22 151.624 48.22 155.728V155.944C48.22 160.372 44.656 162.532 38.284 162.532H25.108ZM25.108 191.152V177.22H41.092C48.112 177.22 51.352 179.92 51.352 184.024V184.24C51.352 188.668 47.68 191.152 41.308 191.152H25.108ZM81.8991 208H143.243V190.18H102.635V178.192H138.923V161.668H102.635V150.22H142.703V132.4H81.8991V208ZM172.402 208H193.354V150.76H216.034V132.4H149.722V150.76H172.402V208ZM243.699 208H264.651V150.76H287.331V132.4H221.019V150.76H243.699V208ZM296.528 208H357.872V190.18H317.264V178.192H353.552V161.668H317.264V150.22H357.332V132.4H296.528V208ZM368.563 208H389.515V185.104H398.695L413.923 208H438.115L420.079 181.648C429.475 177.652 435.631 169.984 435.631 158.428V158.212C435.631 150.76 433.363 144.928 428.935 140.608C423.859 135.424 415.867 132.4 404.311 132.4H368.563V208ZM389.515 168.688V150.544H403.231C410.251 150.544 414.571 153.568 414.571 159.508V159.724C414.571 165.232 410.467 168.688 403.339 168.688H389.515ZM476.141 208H496.661V164.8L515.885 194.176H516.317L535.649 164.584V208H556.493V132.4H534.353L516.317 161.668L498.281 132.4H476.141V208ZM569.903 208H631.247V190.18H590.639V178.192H626.927V161.668H590.639V150.22H630.707V132.4H569.903V208ZM692.087 208.54H710.339L725.459 165.016L740.687 208.54H758.939L784.211 132.4H762.503L749.327 176.14L734.747 132.184H716.711L702.131 176.14L688.955 132.4H666.815L692.087 208.54ZM792.98 208H814.04V132.4H792.98V208ZM846.348 208H867.3V150.76H889.98V132.4H823.668V150.76H846.348V208ZM899.176 208H920.128V179.272H947.02V208H967.972V132.4H947.02V160.696H920.128V132.4H899.176V208ZM7.288 355.28H15.604V327.308C19.924 333.572 26.62 339.188 36.988 339.188C50.488 339.188 63.664 328.388 63.664 310.136V309.92C63.664 291.56 50.38 280.976 36.988 280.976C26.728 280.976 20.14 286.7 15.604 293.396V282.164H7.288V355.28ZM35.476 331.736C25.108 331.736 15.28 323.096 15.28 310.136V309.92C15.28 297.176 25.108 288.428 35.476 288.428C46.06 288.428 55.132 296.852 55.132 310.028V310.244C55.132 323.744 46.276 331.736 35.476 331.736ZM79.2228 269.96H88.7268V260.78H79.2228V269.96ZM79.7628 338H88.0788V282.164H79.7628V338ZM108.134 338H116.45V259.16H108.134V338ZM136.505 338H144.821V259.16H136.505V338ZM172.76 355.604C181.184 355.604 186.584 351.392 191.336 339.836L214.772 282.164H205.916L187.988 328.712L167.684 282.164H158.504L183.884 337.784C180.536 345.668 177.404 348.26 172.436 348.26C168.872 348.26 166.388 347.612 163.688 346.208L160.88 352.796C164.66 354.632 168.116 355.604 172.76 355.604Z" fill="white"/>
</svg>
