<svg width="312" height="137" viewBox="0 0 312 137" fill="none" xmlns="http://www.w3.org/2000/svg">
<path d="M9.786 30H17.934V7.74H26.754V0.599998H0.966V7.74H9.786V30ZM43.8431 30.588C52.9151 30.588 59.7191 23.742 59.7191 15.3V15.216C59.7191 6.774 52.9991 0.0119981 43.9271 0.0119981C34.8551 0.0119981 28.0511 6.858 28.0511 15.3V15.384C28.0511 23.826 34.7711 30.588 43.8431 30.588ZM43.9271 23.238C39.4751 23.238 36.4091 19.542 36.4091 15.3V15.216C36.4091 10.974 39.3911 7.362 43.8431 7.362C48.3371 7.362 51.4031 11.058 51.4031 15.3V15.384C51.4031 19.626 48.4211 23.238 43.9271 23.238ZM63.9634 30H71.9434V13.2L79.4194 24.624H79.5874L87.1054 13.116V30H95.2114V0.599998H86.6014L79.5874 11.982L72.5734 0.599998H63.9634V30ZM115.21 30.588C124.282 30.588 131.086 23.742 131.086 15.3V15.216C131.086 6.774 124.366 0.0119981 115.294 0.0119981C106.222 0.0119981 99.4183 6.858 99.4183 15.3V15.384C99.4183 23.826 106.138 30.588 115.21 30.588ZM115.294 23.238C110.842 23.238 107.776 19.542 107.776 15.3V15.216C107.776 10.974 110.758 7.362 115.21 7.362C119.704 7.362 122.77 11.058 122.77 15.3V15.384C122.77 19.626 119.788 23.238 115.294 23.238ZM135.331 30H143.479V21.096H147.049L152.971 30H162.379L155.365 19.752C159.019 18.198 161.413 15.216 161.413 10.722V10.638C161.413 7.74 160.531 5.472 158.809 3.792C156.835 1.776 153.727 0.599998 149.233 0.599998H135.331V30ZM143.479 14.712V7.656H148.813C151.543 7.656 153.223 8.832 153.223 11.142V11.226C153.223 13.368 151.627 14.712 148.855 14.712H143.479ZM165.518 30H173.666V21.096H177.236L183.158 30H192.566L185.552 19.752C189.206 18.198 191.6 15.216 191.6 10.722V10.638C191.6 7.74 190.718 5.472 188.996 3.792C187.022 1.776 183.914 0.599998 179.42 0.599998H165.518V30ZM173.666 14.712V7.656H179C181.73 7.656 183.41 8.832 183.41 11.142V11.226C183.41 13.368 181.814 14.712 179.042 14.712H173.666ZM210.49 30.588C219.562 30.588 226.366 23.742 226.366 15.3V15.216C226.366 6.774 219.646 0.0119981 210.574 0.0119981C201.502 0.0119981 194.698 6.858 194.698 15.3V15.384C194.698 23.826 201.418 30.588 210.49 30.588ZM210.574 23.238C206.122 23.238 203.056 19.542 203.056 15.3V15.216C203.056 10.974 206.038 7.362 210.49 7.362C214.984 7.362 218.05 11.058 218.05 15.3V15.384C218.05 19.626 215.068 23.238 210.574 23.238ZM236.782 30.21H243.88L249.76 13.284L255.682 30.21H262.78L272.608 0.599998H264.166L259.042 17.61L253.372 0.515999H246.358L240.688 17.61L235.564 0.599998H226.954L236.782 30.21ZM274.884 15.804C280.134 15.636 283.494 13.494 283.494 7.278V0.599998H275.22V8.79H278.412C278.538 11.058 277.026 12.444 274.212 12.738L274.884 15.804ZM299.336 30.504C306.476 30.504 311.222 26.934 311.222 20.928V20.844C311.222 15.342 307.022 13.158 300.26 11.688C296.186 10.764 295.178 10.176 295.178 8.832V8.748C295.178 7.698 296.144 6.858 298.118 6.858C300.722 6.858 303.662 7.866 306.35 9.756L310.424 4.002C307.232 1.44 303.326 0.0959995 298.328 0.0959995C291.272 0.0959995 286.946 4.044 286.946 9.504V9.588C286.946 15.636 291.776 17.4 298.034 18.828C302.024 19.752 302.99 20.424 302.99 21.642V21.726C302.99 22.986 301.814 23.742 299.63 23.742C296.228 23.742 292.994 22.524 290.096 20.214L285.56 25.632C289.172 28.866 294.128 30.504 299.336 30.504ZM2.604 80H17.766C24.78 80 28.896 76.934 28.896 71.894V71.81C28.896 67.82 26.628 65.804 23.058 64.628C25.662 63.494 27.594 61.478 27.594 58.076V57.992C27.594 55.976 26.88 54.422 25.704 53.246C23.982 51.524 21.378 50.6 17.682 50.6H2.604V80ZM10.542 62.318V57.152H15.834C18.27 57.152 19.53 58.076 19.53 59.672V59.756C19.53 61.478 18.144 62.318 15.666 62.318H10.542ZM10.542 73.448V68.03H16.758C19.488 68.03 20.748 69.08 20.748 70.676V70.76C20.748 72.482 19.32 73.448 16.842 73.448H10.542ZM32.6274 80H56.4834V73.07H40.6914V68.408H54.8034V61.982H40.6914V57.53H56.2734V50.6H32.6274V80ZM67.8231 80H75.9711V57.74H84.7911V50.6H59.0031V57.74H67.8231V80ZM95.5497 80H103.698V57.74H112.518V50.6H86.7297V57.74H95.5497V80ZM116.094 80H139.95V73.07H124.158V68.408H138.27V61.982H124.158V57.53H139.74V50.6H116.094V80ZM144.108 80H152.256V71.096H155.826L161.748 80H171.156L164.142 69.752C167.796 68.198 170.19 65.216 170.19 60.722V60.638C170.19 57.74 169.308 55.472 167.586 53.792C165.612 51.776 162.504 50.6 158.01 50.6H144.108V80ZM152.256 64.712V57.656H157.59C160.32 57.656 162 58.832 162 61.142V61.226C162 63.368 160.404 64.712 157.632 64.712H152.256ZM185.944 80H193.924V63.2L201.4 74.624H201.568L209.086 63.116V80H217.192V50.6H208.582L201.568 61.982L194.554 50.6H185.944V80ZM222.407 80H246.263V73.07H230.471V68.408H244.583V61.982H230.471V57.53H246.053V50.6H222.407V80ZM10.458 130.21H17.556L23.436 113.284L29.358 130.21H36.456L46.284 100.6H37.842L32.718 117.61L27.048 100.516H20.034L14.364 117.61L9.24 100.6H0.63L10.458 130.21ZM49.6939 130H57.8839V100.6H49.6939V130ZM70.4481 130H78.5961V107.74H87.4161V100.6H61.6281V107.74H70.4481V130ZM90.9927 130H99.1407V118.828H109.599V130H117.747V100.6H109.599V111.604H99.1407V100.6H90.9927V130ZM135.6 136.72H138.834V125.842C140.514 128.278 143.118 130.462 147.15 130.462C152.4 130.462 157.524 126.262 157.524 119.164V119.08C157.524 111.94 152.358 107.824 147.15 107.824C143.16 107.824 140.598 110.05 138.834 112.654V108.286H135.6V136.72ZM146.562 127.564C142.53 127.564 138.708 124.204 138.708 119.164V119.08C138.708 114.124 142.53 110.722 146.562 110.722C150.678 110.722 154.206 113.998 154.206 119.122V119.206C154.206 124.456 150.762 127.564 146.562 127.564ZM163.575 103.54H167.271V99.97H163.575V103.54ZM163.785 130H167.019V108.286H163.785V130ZM174.818 130H178.052V99.34H174.818V130ZM185.851 130H189.085V99.34H185.851V130ZM199.951 136.846C203.227 136.846 205.327 135.208 207.175 130.714L216.289 108.286H212.845L205.873 126.388L197.977 108.286H194.407L204.277 129.916C202.975 132.982 201.757 133.99 199.825 133.99C198.439 133.99 197.473 133.738 196.423 133.192L195.331 135.754C196.801 136.468 198.145 136.846 199.951 136.846Z" fill="white"/>
</svg>
