<svg width="827" height="210" viewBox="0 0 827 210" fill="none" xmlns="http://www.w3.org/2000/svg">
<path d="M29.512 78H50.572V49.38L79.3 2.39999H55.864L40.204 29.94L24.652 2.39999H0.784L29.512 49.704V78ZM116.692 79.512C140.02 79.512 157.516 61.908 157.516 40.2V39.984C157.516 18.276 140.236 0.887995 116.908 0.887995C93.5805 0.887995 76.0845 18.492 76.0845 40.2V40.416C76.0845 62.124 93.3645 79.512 116.692 79.512ZM116.908 60.612C105.46 60.612 97.5765 51.108 97.5765 40.2V39.984C97.5765 29.076 105.244 19.788 116.692 19.788C128.248 19.788 136.132 29.292 136.132 40.2V40.416C136.132 51.324 128.464 60.612 116.908 60.612ZM202.45 79.404C223.942 79.404 237.874 68.712 237.874 44.304V2.39999H216.598V44.952C216.598 55.536 211.09 60.504 202.666 60.504C194.242 60.504 188.734 55.32 188.734 44.412V2.39999H167.458V44.844C167.458 68.496 180.958 79.404 202.45 79.404ZM250.274 78H271.226V55.104H280.406L295.634 78H319.826L301.79 51.648C311.186 47.652 317.342 39.984 317.342 28.428V28.212C317.342 20.76 315.074 14.928 310.646 10.608C305.57 5.42399 297.578 2.39999 286.022 2.39999H250.274V78ZM271.226 38.688V20.544H284.942C291.962 20.544 296.282 23.568 296.282 29.508V29.724C296.282 35.232 292.178 38.688 285.05 38.688H271.226ZM357.852 78H378.804V49.272H405.696V78H426.648V2.39999H405.696V30.696H378.804V2.39999H357.852V78ZM440.012 78H501.356V60.18H460.748V48.192H497.036V31.668H460.748V20.22H500.816V2.39999H440.012V78ZM506 78H528.032L533.432 64.5H562.592L568.1 78H590.564L558.38 1.86H538.184L506 78ZM539.588 48.192L548.12 26.7L556.544 48.192H539.588ZM597.899 78H655.463V59.64H618.851V2.39999H597.899V78ZM672.16 78H693.112V20.76H715.792V2.39999H649.48V20.76H672.16V78ZM724.989 78H745.941V49.272H772.833V78H793.785V2.39999H772.833V30.696H745.941V2.39999H724.989V78ZM804.233 95.82C817.733 95.388 826.481 89.88 826.481 73.896V56.724H805.097V77.784H813.413C813.629 83.616 809.849 87.072 802.613 87.936L804.233 95.82ZM45.712 209.512C69.04 209.512 86.536 191.908 86.536 170.2V169.984C86.536 148.276 69.256 130.888 45.928 130.888C22.6 130.888 5.104 148.492 5.104 170.2V170.416C5.104 192.124 22.384 209.512 45.712 209.512ZM45.928 190.612C34.48 190.612 26.596 181.108 26.596 170.2V169.984C26.596 159.076 34.264 149.788 45.712 149.788C57.268 149.788 65.152 159.292 65.152 170.2V170.416C65.152 181.324 57.484 190.612 45.928 190.612ZM131.47 209.404C152.962 209.404 166.894 198.712 166.894 174.304V132.4H145.618V174.952C145.618 185.536 140.11 190.504 131.686 190.504C123.262 190.504 117.754 185.32 117.754 174.412V132.4H96.4779V174.844C96.4779 198.496 109.978 209.404 131.47 209.404ZM179.294 208H200.246V185.104H209.426L224.654 208H248.846L230.81 181.648C240.206 177.652 246.362 169.984 246.362 158.428V158.212C246.362 150.76 244.094 144.928 239.666 140.608C234.59 135.424 226.598 132.4 215.042 132.4H179.294V208ZM200.246 168.688V150.544H213.962C220.982 150.544 225.302 153.568 225.302 159.508V159.724C225.302 165.232 221.198 168.688 214.07 168.688H200.246ZM286.872 208H307.392V164.8L326.616 194.176H327.048L346.38 164.584V208H367.224V132.4H345.084L327.048 161.668L309.012 132.4H286.872V208ZM381.065 208H402.126V132.4H381.065V208ZM445.666 209.296C464.026 209.296 476.23 200.116 476.23 184.672V184.456C476.23 170.308 465.43 164.692 448.042 160.912C437.566 158.536 434.974 157.024 434.974 153.568V153.352C434.974 150.652 437.458 148.492 442.534 148.492C449.23 148.492 456.79 151.084 463.702 155.944L474.178 141.148C465.97 134.56 455.926 131.104 443.074 131.104C424.93 131.104 413.806 141.256 413.806 155.296V155.512C413.806 171.064 426.226 175.6 442.318 179.272C452.578 181.648 455.062 183.376 455.062 186.508V186.724C455.062 189.964 452.038 191.908 446.422 191.908C437.674 191.908 429.358 188.776 421.906 182.836L410.242 196.768C419.53 205.084 432.274 209.296 445.666 209.296ZM515.064 209.296C533.424 209.296 545.628 200.116 545.628 184.672V184.456C545.628 170.308 534.828 164.692 517.44 160.912C506.964 158.536 504.372 157.024 504.372 153.568V153.352C504.372 150.652 506.856 148.492 511.932 148.492C518.628 148.492 526.188 151.084 533.1 155.944L543.576 141.148C535.368 134.56 525.324 131.104 512.472 131.104C494.328 131.104 483.204 141.256 483.204 155.296V155.512C483.204 171.064 495.624 175.6 511.716 179.272C521.976 181.648 524.46 183.376 524.46 186.508V186.724C524.46 189.964 521.436 191.908 515.82 191.908C507.072 191.908 498.756 188.776 491.304 182.836L479.64 196.768C488.928 205.084 501.672 209.296 515.064 209.296ZM556.249 208H577.309V132.4H556.249V208ZM629.165 209.512C652.493 209.512 669.989 191.908 669.989 170.2V169.984C669.989 148.276 652.709 130.888 629.381 130.888C606.053 130.888 588.557 148.492 588.557 170.2V170.416C588.557 192.124 605.837 209.512 629.165 209.512ZM629.381 190.612C617.933 190.612 610.049 181.108 610.049 170.2V169.984C610.049 159.076 617.717 149.788 629.165 149.788C640.721 149.788 648.605 159.292 648.605 170.2V170.416C648.605 181.324 640.937 190.612 629.381 190.612ZM680.903 208H701.639V166.528L733.931 208H752.291V132.4H731.555V172.36L700.451 132.4H680.903V208ZM763.648 208H785.032V186.94H763.648V208Z" fill="white"/>
</svg>
